<svg width="220" height="55" viewBox="0 0 220 55" fill="none" xmlns="http://www.w3.org/2000/svg">
<rect width="220" height="55" rx="3" fill="#ED1B24"/>
<path d="M66.3716 28.2109H64.7759V34H62.438V20.4922H64.7759V26.1699H66.0654L70.0361 20.4922H72.9121L68.2734 26.9585L73.3203 34H70.5L66.3716 28.2109ZM77.5415 30.7715L79.5825 23.9619H81.9854L77.9961 35.5215C77.3838 37.21 76.3447 38.0542 74.8789 38.0542C74.5511 38.0542 74.1893 37.9985 73.7935 37.8872V36.1431L74.2202 36.1709C74.7892 36.1709 75.216 36.0658 75.5005 35.8555C75.7912 35.6514 76.02 35.305 76.187 34.8164L76.5117 33.9536L72.9863 23.9619H75.417L77.5415 30.7715ZM91.8008 34H89.5464V25.7803H85.6313V34H83.377V23.9619H91.8008V34ZM100.466 23.9619H102.711V34H100.466V27.3018L96.5322 34H94.2871V23.9619H96.5322V30.6602L100.466 23.9619ZM113.009 25.7524H109.752V34H107.498V25.7524H104.279V23.9619H113.009V25.7524ZM116.942 27.1533H119.15C119.973 27.1533 120.69 27.2956 121.303 27.5801C121.915 27.8646 122.379 28.2635 122.694 28.7769C123.016 29.2902 123.177 29.887 123.177 30.5674C123.177 31.6003 122.812 32.429 122.082 33.0537C121.352 33.6784 120.381 33.9938 119.169 34H114.688V23.9619H116.942V27.1533ZM116.942 28.9624V32.2002H119.141C119.692 32.2002 120.125 32.0641 120.44 31.792C120.762 31.5137 120.922 31.1209 120.922 30.6138C120.922 30.1066 120.765 29.7077 120.449 29.417C120.14 29.1201 119.719 28.9686 119.188 28.9624H116.942Z" fill="white"/>
<path d="M32.8485 19C32.6235 19 32.4076 19.0896 32.2485 19.249C32.0894 19.4084 32 19.6246 32 19.85C32 20.0755 32.0894 20.2917 32.2485 20.4511C32.4076 20.6105 32.6235 20.7 32.8485 20.7H34.7321L36.9585 29.625C37.1478 30.3815 37.824 30.9 38.6021 30.9H49.1827C49.9488 30.9 50.5996 30.39 50.8007 29.6505L53 21.55H51.2233L49.1818 29.2H38.6012L36.3756 20.275C36.2837 19.9089 36.0718 19.5842 35.7738 19.3531C35.4758 19.1219 35.109 18.9976 34.7321 19H32.8485ZM48.1212 30.9C46.7255 30.9 45.5758 32.0518 45.5758 33.45C45.5758 34.8483 46.7255 36 48.1212 36C49.517 36 50.6667 34.8483 50.6667 33.45C50.6667 32.0518 49.517 30.9 48.1212 30.9ZM40.4848 30.9C39.0891 30.9 37.9394 32.0518 37.9394 33.45C37.9394 34.8483 39.0891 36 40.4848 36C41.8806 36 43.0303 34.8483 43.0303 33.45C43.0303 32.0518 41.8806 30.9 40.4848 30.9ZM43.0303 19V23.25H40.4848L43.8788 26.65L47.2727 23.25H44.7273V19H43.0303ZM40.4848 32.6C40.9634 32.6 41.3333 32.9706 41.3333 33.45C41.3333 33.9294 40.9634 34.3 40.4848 34.3C40.0063 34.3 39.6364 33.9294 39.6364 33.45C39.6364 32.9706 40.0063 32.6 40.4848 32.6ZM48.1212 32.6C48.5998 32.6 48.9697 32.9706 48.9697 33.45C48.9697 33.9294 48.5998 34.3 48.1212 34.3C47.6427 34.3 47.2727 33.9294 47.2727 33.45C47.2727 32.9706 47.6427 32.6 48.1212 32.6Z" fill="white"/>
<path d="M188.707 28.7071C189.098 28.3166 189.098 27.6834 188.707 27.2929L182.343 20.9289C181.953 20.5384 181.319 20.5384 180.929 20.9289C180.538 21.3195 180.538 21.9526 180.929 22.3431L186.586 28L180.929 33.6569C180.538 34.0474 180.538 34.6805 180.929 35.0711C181.319 35.4616 181.953 35.4616 182.343 35.0711L188.707 28.7071ZM136 29L188 29L188 27L136 27L136 29Z" fill="white"/>
</svg>
