<svg width="525" height="461" viewBox="0 0 525 461" fill="none" xmlns="http://www.w3.org/2000/svg">
<path d="M163.659 363.891C163.612 365.974 163.517 368.105 163.47 370.189C168.063 370.141 172.609 370.047 177.202 369.999C177.249 367.916 177.344 365.785 177.392 363.701" stroke="white" stroke-width="2" stroke-miterlimit="10"/>
<path d="M163.658 363.89C162.238 363.748 160.817 363.653 159.397 363.511C157.503 362.233 155.561 360.907 153.667 359.628C153.383 358.445 153.193 357.071 153.099 355.556C152.957 352.478 153.335 349.874 153.856 347.98C154.945 345.091 156.319 341.729 158.118 337.988C160.533 332.969 162.048 329.796 164.795 326.292C167.115 323.356 169.151 321.604 172.561 318.715C176.728 315.211 181.084 311.518 187.003 308.345C194.343 304.415 200.594 303.136 207.223 301.858C213.521 300.627 222.66 299.443 233.883 300.2C235.682 297.927 237.482 295.607 239.234 293.334C236.914 291.061 233.409 287.557 229.053 283.343C215.321 269.942 211.296 266.39 209.023 264.449C206.181 261.987 201.825 258.293 196.237 254.079C191.36 253.747 186.483 253.463 181.605 253.132C180.09 251.19 177.77 248.159 175.307 244.229C171.472 238.168 169.814 234.096 166.973 228.461C163.374 221.358 160.865 217.759 157.36 211.982C146.422 193.988 136.715 173.2 134.962 169.364C123.03 143.746 118.673 128.072 117.537 123.763C115.216 115.145 114.648 110.22 113.464 100.418C112.422 91.8944 112.375 87.1591 113.654 81.9029C114.885 76.7415 116.968 72.7164 117.726 71.3432C119.241 68.5494 120.662 66.6079 122.935 63.7667C125.776 60.1679 129.659 55.3379 134.631 49.7029C136.715 48.6137 139.603 47.2879 143.155 46.1987C145.191 45.4411 149.31 44.3046 155.514 43.8784C162.759 43.3576 168.631 44.1152 174.029 44.9676C186.388 46.9564 193.917 48.1402 203.482 51.4549C217.594 56.2849 227.064 62.5829 236.487 68.8808C243.638 73.6635 261.442 86.2594 279.863 107.616C287.108 115.997 296.058 127.646 304.676 142.657C304.818 143.793 304.865 145.261 304.676 146.919C304.439 149.05 303.871 150.849 303.397 152.127C306.049 152.601 308.748 153.169 311.542 153.785C319.734 155.679 327.168 158.094 333.798 160.651C348.951 165.955 364.293 171.448 379.73 177.13C395.073 182.765 410.226 188.447 425.142 194.177C425.947 194.745 427.083 195.692 428.315 196.971C429.735 198.439 430.824 199.954 431.819 201.611C435.844 208.241 440.2 220.884 440.532 221.831C442.142 226.519 443.515 230.591 444.604 233.859C447.019 235.09 450.476 236.842 454.595 239.068C461.083 242.524 464.398 244.276 467.002 246.123C472.779 250.148 476.662 254.41 478.698 256.872C485.659 265.301 488.358 273.446 488.879 275.198C489.968 278.702 489.637 278.939 491.484 285.19C492.052 287.131 493.188 290.825 494.088 295.749C494.798 299.537 494.846 301.526 493.709 303.184C492.715 304.604 491.199 305.267 490.205 305.599C487.506 305.741 484.759 305.788 481.871 305.788C472.258 305.741 463.545 304.652 455.921 303.184" stroke="white" stroke-width="2" stroke-miterlimit="10"/>
<path d="M444.557 233.811C446.925 243.234 449.055 253.368 450.855 264.212C453.791 282.064 455.211 298.637 455.685 313.506C455.969 314.737 456.3 317.342 455.306 320.372C454.643 322.361 453.649 323.782 452.891 324.634C450.429 327.049 448.156 328.801 446.404 329.985C444.604 331.216 442.663 332.589 439.916 333.679C437.312 334.72 435.134 335.147 432.482 335.525C428.836 336.046 423.58 336.662 416.903 336.804C407.195 336.899 393.558 336.851 377.268 336.236C359.416 335.573 347.483 335.099 331.667 333.063C310.027 330.269 295.774 326.434 289.239 324.539C266.746 318.005 259.122 312.417 255.902 309.529C255.145 308.866 249.889 304.13 243.306 297.501C241.034 295.228 239.187 293.286 238.003 292.055" stroke="white" stroke-width="2" stroke-miterlimit="10"/>
<path d="M400.471 336.804C400.329 345.091 400.234 353.378 400.092 361.665C398.814 361.996 396.778 362.47 394.173 362.754C390.006 363.275 386.833 363.133 386.028 363.133C366.235 362.47 346.394 363.985 326.553 363.511C312.394 363.18 289.428 363.464 243.543 364.08C225.975 364.316 205.897 364.648 177.391 364.08C170.43 363.938 164.7 363.795 160.912 363.701" stroke="white" stroke-width="2" stroke-miterlimit="10"/>
<path d="M158.734 363.038C160.202 359.818 162.901 354.893 167.778 350.158C172.135 345.896 176.586 343.434 179.617 342.013C182.032 341.161 184.778 340.309 187.761 339.598C192.733 338.462 197.232 337.941 201.115 337.751C207.223 337.704 215.7 337.751 225.738 338.13C234.783 338.462 247.047 339.077 270.014 341.303C285.072 342.724 309.459 345.328 341.185 349.827C357.333 352.147 370.923 354.278 380.82 355.935C382.477 356.267 384.418 356.835 386.549 357.782C389.959 359.297 392.468 361.239 394.126 362.801" stroke="white" stroke-width="2" stroke-miterlimit="10"/>
<path d="M153.288 357.591C155.514 352.856 158.023 349.304 159.965 346.842C162.143 344.048 165.032 340.449 169.956 337.04C174.313 334.009 178.196 332.589 180.327 331.831C183.215 330.789 186.956 329.795 194.201 329.037C202.488 328.185 208.881 328.374 212.906 328.469C226.401 328.848 233.173 329.085 239.755 329.558C258.08 330.979 274.559 332.873 289.949 334.767C315.235 337.845 327.831 339.408 344.263 342.201C359.321 344.758 371.87 347.315 380.772 349.257C383.092 349.636 386.36 350.488 389.864 352.43C395.262 355.365 398.482 359.391 400.045 361.711" stroke="white" stroke-width="2" stroke-miterlimit="10"/>
<path d="M220.719 328.707C224.744 324.54 229.337 319.094 233.694 312.181C237.34 306.356 239.992 300.863 241.933 296.128" stroke="white" stroke-width="2" stroke-miterlimit="10"/>
<path d="M233.883 300.152C234.546 302.946 235.256 305.74 235.919 308.534" stroke="white" stroke-width="2" stroke-miterlimit="10"/>
<path d="M221.287 328.138C222.707 324.302 224.317 320.325 226.117 316.252C228.626 310.475 231.278 305.077 233.883 300.152" stroke="white" stroke-width="2" stroke-miterlimit="10"/>
<path d="M334.888 333.49C329.821 328.991 322.008 322.077 312.49 313.649C297.195 300.106 294.638 297.927 289.713 293.287C282.516 286.515 274.276 278.655 264.711 267.716C258.886 261.039 251.31 251.711 243.213 239.92C240.324 236.084 238.619 232.58 237.672 230.118C236.299 226.661 235.541 224.672 236.015 222.163C236.015 222.163 236.157 221.405 238.051 216.433C238.761 215.817 239.898 214.87 241.366 213.828C245.154 211.177 248.469 209.851 250.079 209.188C267.741 202.132 278.064 199.196 278.064 199.196C284.694 197.302 293.217 195.077 303.256 192.898C305.529 192.425 308.37 192.046 311.59 191.951C314.621 191.904 317.32 192.141 319.546 192.52C324.139 193.561 330.816 195.219 338.818 197.539C360.127 203.695 374.096 209.803 393.274 217.759C405.586 222.873 423.438 230.118 445.789 238.736" stroke="white" stroke-width="2" stroke-miterlimit="10"/>
<path d="M349.093 334.909C345.21 331.547 338.817 326.054 330.957 319.236C304.723 296.554 302.64 294.896 297.62 289.971C295.821 288.172 287.581 279.033 271.103 260.707C264.189 253.036 257.844 245.838 251.83 234.568C250.267 231.632 249.083 229.075 248.326 227.323C248.089 226.802 247.379 225.24 247.758 223.251C248.326 220.505 250.551 219.179 250.93 218.989C252.872 217.947 255.666 216.48 259.075 214.917C270.156 209.755 280.763 207.104 301.503 201.942C303.729 201.374 306.617 200.664 310.595 200.474C316.798 200.143 321.96 201.137 325.417 202.132C337.539 205.967 349.898 210.087 362.494 214.538C392.895 225.287 421.401 236.794 447.966 248.68" stroke="white" stroke-width="2" stroke-miterlimit="10"/>
<path d="M167.779 230.024C177.676 214.113 187.573 198.203 197.517 182.292C171.33 158.094 145.144 133.85 118.958 109.652" stroke="white" stroke-width="2" stroke-miterlimit="10"/>
<path d="M160.107 216.337C150.589 197.87 143.202 181.864 137.709 169.411C134.11 161.124 127.291 145.261 122.414 126.935C121.277 122.673 119.62 115.902 118.72 107.189C118.152 101.554 117.536 95.4452 118.483 87.4425C119.667 77.2616 122.603 69.9692 123.408 67.9331C126.723 59.9304 131.032 53.8692 134.583 49.6548" stroke="white" stroke-width="2" stroke-miterlimit="10"/>
<path d="M197.515 182.292C238.002 167.281 254.907 161.362 262.72 158.805C271.007 156.105 279.104 152.743 287.439 150.139C292.127 148.671 282.893 151.796 294.163 147.535C298.046 146.067 300.177 145.309 301.787 143.178C302.639 142.089 303.065 140.952 303.302 140.147" stroke="white" stroke-width="2" stroke-miterlimit="10"/>
<path d="M194.06 187.878C218.636 179.639 243.259 171.542 267.93 163.539C279.721 159.703 291.559 155.915 303.398 152.127" stroke="white" stroke-width="2" stroke-miterlimit="10"/>
<path d="M285.876 150.66C287.249 152.554 288.575 154.495 289.948 156.389" stroke="white" stroke-width="2" stroke-miterlimit="10"/>
<path d="M382.288 363.038C382.477 365.547 382.62 368.057 382.809 370.567C387.071 370.472 391.38 370.425 395.642 370.33C395.594 367.773 395.547 365.168 395.5 362.611" stroke="white" stroke-width="2" stroke-miterlimit="10"/>
<path d="M404.544 336.852C408.758 344.712 412.925 352.573 417.14 360.433" stroke="white" stroke-width="2" stroke-miterlimit="10"/>
<path d="M430.398 335.81C430.919 344.901 431.44 354.04 431.961 363.132" stroke="white" stroke-width="2" stroke-miterlimit="10"/>
<path d="M431.961 363.133C437.927 363.322 443.941 363.511 450.002 363.606C468.565 364.032 486.796 364.08 504.601 363.843C507.11 363.464 509.099 362.849 510.52 362.375C513.219 361.428 515.018 360.812 516.676 359.155C518.286 357.592 519.043 355.84 519.375 354.704C519.469 352.715 519.517 350.773 519.611 348.785" stroke="white" stroke-width="2" stroke-miterlimit="10"/>
<path d="M455.542 309.529C460.798 310.855 465.344 311.707 468.848 312.275C470.979 312.607 471.595 312.654 487.553 314.217C495.224 314.975 497.307 315.164 500.669 314.69C505.073 314.075 508.53 312.749 510.803 311.707C510.992 310.902 511.134 309.576 510.566 308.25C509.809 306.451 508.151 305.551 507.109 305.03C503.795 303.326 499.58 301.242 494.514 298.875" stroke="white" stroke-width="2" stroke-miterlimit="10"/>
<path d="M510.709 308.771C512.792 312.228 514.876 315.685 516.959 319.141C518.617 326.055 520.274 332.968 521.884 339.882C522.026 340.924 522.121 342.581 521.647 344.57C521.458 345.328 520.89 347.174 519.659 348.784C518.001 350.915 515.634 351.957 512.508 352.715C504.79 354.656 495.982 354.041 492.478 353.709C472.069 352.904 451.66 352.099 431.25 351.294" stroke="white" stroke-width="2" stroke-miterlimit="10"/>
<path d="M453.933 323.214C473.3 324.398 487.837 325.203 494.23 325.629C494.846 325.676 498.302 325.676 505.121 325.629C507.584 325.629 509.336 325.582 511.561 324.871C514.308 323.972 516.297 322.456 517.528 321.32" stroke="white" stroke-width="2" stroke-miterlimit="10"/>
<path d="M423.769 367.346C427.43 367.346 430.398 364.378 430.398 360.717C430.398 357.055 427.43 354.087 423.769 354.087C420.108 354.087 417.14 357.055 417.14 360.717C417.14 364.378 420.108 367.346 423.769 367.346Z" stroke="white" stroke-width="2" stroke-miterlimit="10"/>
<path d="M424.006 363.038C425.209 363.038 426.184 362.063 426.184 360.86C426.184 359.657 425.209 358.682 424.006 358.682C422.803 358.682 421.828 359.657 421.828 360.86C421.828 362.063 422.803 363.038 424.006 363.038Z" stroke="white" stroke-width="2" stroke-miterlimit="10"/>
<path d="M399.097 184.279C398.861 182.669 398.624 179.497 399.902 175.803C401.37 171.589 404.022 169.079 405.253 168.037" stroke="white" stroke-width="2" stroke-miterlimit="10"/>
<path d="M403.691 186.032C405.064 182.812 406.579 179.544 408.237 176.135C410.889 170.737 413.635 165.812 416.382 161.313" stroke="white" stroke-width="5" stroke-miterlimit="10"/>
<path d="M396.967 167.659C402.27 167.517 407.621 167.374 412.925 167.232" stroke="white" stroke-width="2" stroke-miterlimit="10"/>
<path d="M396.967 167.658C402.839 158.283 408.71 148.859 414.582 139.483C418.228 139.483 421.875 139.483 425.521 139.483C425.805 139.768 426.278 140.43 426.468 141.33C426.799 142.988 425.9 144.219 425.71 144.503C424.1 147.486 422.49 150.422 420.88 153.405" stroke="white" stroke-width="2" stroke-miterlimit="10"/>
<path d="M405.3 168.037C410.32 160.129 415.292 152.221 420.311 144.313C420.453 144.219 421.684 143.461 421.779 141.898C421.874 140.525 420.974 139.625 420.832 139.483" stroke="white" stroke-width="2" stroke-miterlimit="10"/>
<path d="M412.688 159.515C412.783 158.663 413.115 156.768 414.535 154.874C416.051 152.838 417.992 152.033 418.797 151.702C420.218 153.359 421.638 155.016 423.059 156.721C423.106 157.1 423.296 158.615 422.301 160.036C421.117 161.741 419.271 162.025 418.986 162.072C416.903 161.22 414.819 160.367 412.688 159.515Z" stroke="white" stroke-width="2" stroke-miterlimit="10"/>
<path d="M401.418 167.517C406.532 159.704 411.646 151.89 416.808 144.077C416.997 143.793 417.613 142.704 417.376 141.283C417.187 140.336 416.713 139.721 416.429 139.437" stroke="white" stroke-width="2" stroke-miterlimit="10"/>
<line x1="68.5" y1="7" x2="68.5" y2="370" stroke="url(#paint0_linear)"/>
<line x1="521" y1="413.5" x2="111" y2="413.5" stroke="url(#paint1_linear)"/>
<circle cx="68.5" cy="373.5" r="3.5" fill="url(#paint2_linear)"/>
<circle cx="107.5" cy="413.5" r="3.5" fill="url(#paint3_linear)"/>
<circle cx="521.5" cy="413.5" r="3.5" fill="url(#paint4_linear)"/>
<circle cx="68.5" cy="3.5" r="3.5" fill="url(#paint5_linear)"/>
<path d="M9.11719 188H7.69922V181.15L5.60742 181.865V180.664L8.93555 179.439H9.11719V188ZM17.8184 188H12.082V187.021L14.9238 183.922C15.334 183.465 15.625 183.084 15.7969 182.779C15.9727 182.471 16.0605 182.162 16.0605 181.854C16.0605 181.447 15.9453 181.119 15.7148 180.869C15.4883 180.619 15.1816 180.494 14.7949 180.494C14.334 180.494 13.9766 180.635 13.7227 180.916C13.4688 181.197 13.3418 181.582 13.3418 182.07H11.918C11.918 181.551 12.0352 181.084 12.2695 180.67C12.5078 180.252 12.8457 179.928 13.2832 179.697C13.7246 179.467 14.2324 179.352 14.8066 179.352C15.6348 179.352 16.2871 179.561 16.7637 179.979C17.2441 180.393 17.4844 180.967 17.4844 181.701C17.4844 182.127 17.3633 182.574 17.1211 183.043C16.8828 183.508 16.4902 184.037 15.9434 184.631L13.8574 186.863H17.8184V188ZM22.7578 188H21.3398V181.15L19.248 181.865V180.664L22.5762 179.439H22.7578V188ZM31.4062 186.98C31.7617 186.98 32.0566 186.877 32.291 186.67C32.5254 186.463 32.6504 186.207 32.666 185.902H34.0078C33.9922 186.297 33.8691 186.666 33.6387 187.01C33.4082 187.35 33.0957 187.619 32.7012 187.818C32.3066 188.018 31.8809 188.117 31.4238 188.117C30.5371 188.117 29.834 187.83 29.3145 187.256C28.7949 186.682 28.5352 185.889 28.5352 184.877V184.73C28.5352 183.766 28.793 182.994 29.3086 182.416C29.8242 181.834 30.5273 181.543 31.418 181.543C32.1719 181.543 32.7852 181.764 33.2578 182.205C33.7344 182.643 33.9844 183.219 34.0078 183.934H32.666C32.6504 183.57 32.5254 183.271 32.291 183.037C32.0605 182.803 31.7656 182.686 31.4062 182.686C30.9453 182.686 30.5898 182.854 30.3398 183.189C30.0898 183.521 29.9629 184.027 29.959 184.707V184.936C29.959 185.623 30.082 186.137 30.3281 186.477C30.5781 186.812 30.9375 186.98 31.4062 186.98ZM38.8477 186.248L40.7227 181.66H42.5039V188H41.0801V183.805L39.334 188H38.3672L36.6152 183.781V188H35.1914V181.66H36.9844L38.8477 186.248Z" fill="white"/>
<path d="M304.617 445H303.199V438.15L301.107 438.865V437.664L304.436 436.439H304.617V445ZM307.963 440.77L308.426 436.469H313.008V437.699H309.609L309.375 439.738C309.77 439.512 310.215 439.398 310.711 439.398C311.523 439.398 312.154 439.658 312.604 440.178C313.057 440.697 313.283 441.396 313.283 442.275C313.283 443.143 313.033 443.834 312.533 444.35C312.033 444.861 311.348 445.117 310.477 445.117C309.695 445.117 309.047 444.896 308.531 444.455C308.02 444.01 307.742 443.424 307.699 442.697H309.076C309.131 443.111 309.279 443.43 309.521 443.652C309.764 443.871 310.08 443.98 310.471 443.98C310.908 443.98 311.248 443.824 311.49 443.512C311.736 443.199 311.859 442.773 311.859 442.234C311.859 441.715 311.725 441.305 311.455 441.004C311.186 440.699 310.814 440.547 310.342 440.547C310.084 440.547 309.865 440.582 309.686 440.652C309.506 440.719 309.311 440.852 309.1 441.051L307.963 440.77ZM320.08 437.26L316.67 445H315.176L318.58 437.611H314.168V436.469H320.08V437.26ZM326.906 443.98C327.262 443.98 327.557 443.877 327.791 443.67C328.025 443.463 328.15 443.207 328.166 442.902H329.508C329.492 443.297 329.369 443.666 329.139 444.01C328.908 444.35 328.596 444.619 328.201 444.818C327.807 445.018 327.381 445.117 326.924 445.117C326.037 445.117 325.334 444.83 324.814 444.256C324.295 443.682 324.035 442.889 324.035 441.877V441.73C324.035 440.766 324.293 439.994 324.809 439.416C325.324 438.834 326.027 438.543 326.918 438.543C327.672 438.543 328.285 438.764 328.758 439.205C329.234 439.643 329.484 440.219 329.508 440.934H328.166C328.15 440.57 328.025 440.271 327.791 440.037C327.561 439.803 327.266 439.686 326.906 439.686C326.445 439.686 326.09 439.854 325.84 440.189C325.59 440.521 325.463 441.027 325.459 441.707V441.936C325.459 442.623 325.582 443.137 325.828 443.477C326.078 443.812 326.438 443.98 326.906 443.98ZM334.348 443.248L336.223 438.66H338.004V445H336.58V440.805L334.834 445H333.867L332.115 440.781V445H330.691V438.66H332.484L334.348 443.248Z" fill="white"/>
<defs>
<linearGradient id="paint0_linear" x1="68" y1="188.5" x2="67" y2="188.5" gradientUnits="userSpaceOnUse">
<stop stop-color="#7EFFFF"/>
<stop offset="1" stop-color="#19B0B0"/>
</linearGradient>
<linearGradient id="paint1_linear" x1="316" y1="413" x2="316" y2="412" gradientUnits="userSpaceOnUse">
<stop stop-color="#7EFFFF"/>
<stop offset="1" stop-color="#19B0B0"/>
</linearGradient>
<linearGradient id="paint2_linear" x1="68.5" y1="370" x2="68.5" y2="377" gradientUnits="userSpaceOnUse">
<stop stop-color="#7EFFFF"/>
<stop offset="1" stop-color="#19B0B0"/>
</linearGradient>
<linearGradient id="paint3_linear" x1="107.5" y1="410" x2="107.5" y2="417" gradientUnits="userSpaceOnUse">
<stop stop-color="#7EFFFF"/>
<stop offset="1" stop-color="#19B0B0"/>
</linearGradient>
<linearGradient id="paint4_linear" x1="521.5" y1="410" x2="521.5" y2="417" gradientUnits="userSpaceOnUse">
<stop stop-color="#7EFFFF"/>
<stop offset="1" stop-color="#19B0B0"/>
</linearGradient>
<linearGradient id="paint5_linear" x1="68.5" y1="0" x2="68.5" y2="7" gradientUnits="userSpaceOnUse">
<stop stop-color="#7EFFFF"/>
<stop offset="1" stop-color="#19B0B0"/>
</linearGradient>
</defs>
</svg>
