<svg width="329" height="461" viewBox="0 0 329 461" fill="none" xmlns="http://www.w3.org/2000/svg">
<path d="M149.163 368.579C154.041 368.897 161.465 369.268 170.427 369.587C192.804 370.276 208.978 369.693 219.371 369.375C234.059 368.95 255.43 368.632 282.739 369.268" stroke="white" stroke-width="2" stroke-miterlimit="10"/>
<path d="M149.481 369.374C148.473 366.829 147.519 364.814 146.776 363.382C145.079 359.988 144.284 358.981 143.648 356.754C142.905 354.155 142.958 352.034 143.011 350.549C143.648 335.861 145.291 325.626 145.291 325.626C146.14 320.43 147.041 312.9 147.253 303.355" stroke="white" stroke-width="2" stroke-miterlimit="10"/>
<path d="M156.322 304.044H152.982C150.595 304.044 148.633 302.082 148.633 299.696V225.616C148.633 223.23 150.595 221.268 152.982 221.268H156.322C158.709 221.268 160.671 223.23 160.671 225.616V299.696C160.671 302.082 158.709 304.044 156.322 304.044Z" stroke="white" stroke-width="2" stroke-miterlimit="10"/>
<path d="M165.019 304.044C164.011 304.044 163.163 303.195 163.163 302.188V223.124C163.163 222.117 164.011 221.268 165.019 221.268C166.026 221.268 166.875 222.117 166.875 223.124V302.135C166.928 303.195 166.079 304.044 165.019 304.044Z" stroke="white" stroke-width="2" stroke-miterlimit="10"/>
<path d="M199.274 304.044C198.266 304.044 197.418 303.195 197.418 302.188V223.124C197.418 222.117 198.266 221.268 199.274 221.268C200.281 221.268 201.13 222.117 201.13 223.124V302.135C201.13 303.195 200.281 304.044 199.274 304.044Z" stroke="white" stroke-width="2" stroke-miterlimit="10"/>
<path d="M222.394 304.044H209.668C207.281 304.044 205.319 302.082 205.319 299.696V225.616C205.319 223.23 207.281 221.268 209.668 221.268H222.394C224.78 221.268 226.742 223.23 226.742 225.616V299.696C226.742 302.082 224.78 304.044 222.394 304.044Z" stroke="white" stroke-width="2" stroke-miterlimit="10"/>
<path d="M162.738 304.839C163.269 306.43 164.488 309.346 167.299 311.255C169.526 312.74 171.753 313.005 173.291 313.111C180.927 313.748 189.199 313.376 193.229 313.111C194.024 313.005 195.244 312.74 196.57 312.051C197.153 311.733 198.267 311.149 199.062 310.195C200.918 307.862 199.857 304.415 199.698 303.938" stroke="white" stroke-width="2" stroke-miterlimit="10"/>
<path d="M161.943 304.256C161.307 306.589 160.724 308.976 160.087 311.309C160.777 312.422 161.943 314.066 163.799 315.445C166.61 317.566 169.526 318.202 172.284 318.574C180.874 319.74 190.313 318.945 193.866 318.574C195.192 318.521 197.101 318.202 199.275 317.354C201.131 316.612 202.509 315.604 203.411 314.862C203.623 312.582 203.676 309.824 203.411 306.749C203.04 302.506 202.085 298.9 201.131 296.143" stroke="white" stroke-width="2" stroke-miterlimit="10"/>
<path d="M147.784 302.4C147.784 304.998 148.102 308.445 149.268 312.316C150.011 314.702 150.912 316.717 151.761 318.308C153.033 319.104 154.624 319.899 156.533 320.588C159.821 321.808 162.737 322.126 165.018 322.232C170.267 322.497 190.895 322.656 218.946 322.232" stroke="white" stroke-width="2" stroke-miterlimit="10"/>
<path d="M145.345 325.627C146.671 327.218 149.428 330.081 153.83 331.831C156.534 332.892 158.973 333.21 160.67 333.263C164.382 333.581 168.094 333.846 171.859 334.111C188.032 335.119 203.569 335.331 218.364 334.96" stroke="white" stroke-width="2" stroke-miterlimit="10"/>
<path d="M143.649 356.754C144.603 357.443 146.247 358.451 148.421 358.822C150.171 359.14 151.55 358.928 152.345 358.822C158.55 357.921 161.625 357.443 166.026 356.542C166.026 356.542 170.004 355.747 174.14 355.11C181.033 354.05 186.124 354.103 191.798 354.05C197.525 354.05 205.744 353.944 216.721 353.625" stroke="white" stroke-width="2" stroke-miterlimit="10"/>
<path d="M144.921 359.83C145.875 360.519 147.519 361.527 149.693 361.898C151.443 362.216 152.822 362.004 153.617 361.898C159.822 360.996 162.897 360.519 167.298 359.618C167.298 359.618 171.276 358.822 175.412 358.186C182.305 357.125 187.396 357.178 193.07 357.125C198.797 357.125 207.016 357.019 217.993 356.701" stroke="white" stroke-width="2" stroke-miterlimit="10"/>
<path d="M146.3 319.739C143.49 319.793 140.732 319.899 137.922 319.952C137.869 316.452 137.816 312.952 137.763 309.452" stroke="white" stroke-width="2" stroke-miterlimit="10"/>
<path d="M132.672 307.067C132.884 310.143 133.149 313.272 133.361 316.347C134.634 317.249 135.96 318.097 137.232 318.999" stroke="white" stroke-width="2" stroke-miterlimit="10"/>
<path d="M140.838 319.846C140.785 321.914 140.732 323.929 140.679 325.997C142.163 326.156 143.701 326.262 145.186 326.422" stroke="white" stroke-width="2" stroke-miterlimit="10"/>
<path d="M148.633 294.181C148.898 295.348 149.163 297.31 148.633 299.643C148.368 300.757 147.679 303.991 144.815 306.059C143.808 306.802 141.739 308.286 139.83 307.438C138.081 306.643 137.073 304.521 137.603 302.453C137.338 294.605 137.02 283.47 136.755 270.107C136.225 244.07 135.959 230.76 136.49 216.708C136.861 205.784 137.815 190.619 140.096 172.43" stroke="white" stroke-width="2" stroke-miterlimit="10"/>
<path d="M139.882 307.49C139.617 307.755 138.186 309.187 136.011 309.134C133.996 309.081 132.193 307.808 131.292 305.793" stroke="white" stroke-width="2" stroke-miterlimit="10"/>
<path d="M131.293 305.847C131.77 304.999 132.194 304.203 132.672 303.355C132.778 300.385 132.884 295.984 132.937 290.628C133.096 274.826 132.618 264.327 132.406 254.941C132.141 245.926 131.982 233.094 132.406 217.291C131.081 216.867 129.172 216.019 127.157 214.534C126.308 213.898 124.081 212.095 120.528 205.678C119.256 203.398 117.665 200.217 116.127 196.292" stroke="white" stroke-width="2" stroke-miterlimit="10"/>
<path d="M132.195 228.905C130.975 228.586 129.225 227.95 127.422 226.677C123.816 224.185 122.225 220.844 120.21 216.443C118.938 213.633 117.4 209.656 116.339 204.565" stroke="white" stroke-width="2" stroke-miterlimit="10"/>
<path d="M131.293 305.848C129.649 302.719 127.952 299.59 126.308 296.462C125.46 293.28 124.293 288.826 122.968 283.47C120.793 274.508 119.203 267.827 117.983 260.244C116.498 250.858 116.233 243.699 116.021 237.283C115.491 221.269 117.082 219.307 116.286 204.618C115.809 195.391 115.173 196.187 114.642 185.528C113.953 172.378 114.483 162.886 114.642 160.34C115.173 151.591 116.074 145.546 117.135 138.758C118.354 130.857 119.362 126.35 121.536 121.312C123.021 117.971 124.558 115.32 125.672 113.57C126.786 113.305 127.899 113.04 129.013 112.722" stroke="white" stroke-width="2" stroke-miterlimit="10"/>
<path d="M129.066 112.722C128.96 111.555 128.907 109.911 128.801 108.002C128.748 106.942 128.483 100.79 128.536 94.4271C128.589 88.0638 128.695 79.6854 130.498 69.239C130.975 66.5346 131.983 62.2924 134.104 53.755C136.967 42.036 138.399 37.5817 140.202 33.0213C143.224 25.3854 145.345 22.4689 147.414 20.2947C151.285 16.1586 155.103 14.5678 156.004 14.1966C159.345 12.8179 162.367 12.5527 164.329 12.5527" stroke="white" stroke-width="2" stroke-miterlimit="10"/>
<path d="M151.23 184.361C149.109 191.626 147.306 198.414 145.715 204.83C144.973 207.906 143.965 212.148 145.98 216.178C146.67 217.556 147.571 218.564 148.207 219.2C149.003 219.465 150.276 219.784 151.813 220.049C157.54 221.003 161.836 219.996 165.07 219.519C168.888 218.935 169.631 219.306 179.759 219.519C186.44 219.625 196.887 219.678 213.219 219.253" stroke="white" stroke-width="2" stroke-miterlimit="10"/>
<path d="M160.617 183.301C169.473 183.513 176.631 184.255 181.669 184.945C189.464 186.005 195.721 187.384 206.274 187.967C209.508 188.179 212.213 188.232 214.016 188.232" stroke="white" stroke-width="2" stroke-miterlimit="10"/>
<path d="M183.366 185.157C180.29 187.225 175.942 190.725 172.23 196.239C165.814 205.678 165.072 215.276 165.019 219.465" stroke="white" stroke-width="2" stroke-miterlimit="10"/>
<path d="M184.48 185.316C185.381 179.323 186.388 170.892 186.601 160.817C186.76 154.666 186.654 144.272 184.108 125.66C182.305 112.615 179.23 95.0629 173.609 74.2231" stroke="white" stroke-width="2" stroke-miterlimit="10"/>
<path d="M158.974 150.635C162.473 147.401 166.981 143.795 172.549 140.401C177.056 137.644 181.351 135.576 185.116 133.985" stroke="white" stroke-width="2" stroke-miterlimit="10"/>
<path d="M151.762 65.4204C154.414 68.9202 158.019 73.1624 162.845 77.2986C167.936 81.7529 172.92 84.8284 176.95 87.0026" stroke="white" stroke-width="2" stroke-miterlimit="10"/>
<path d="M129.065 112.722C127.951 115.373 126.626 118.714 125.459 122.691C123.709 128.524 122.967 133.19 122.702 135.152C122.171 138.97 121.588 142.894 121.853 148.144C122.065 151.75 122.224 154.985 123.815 158.909C124.664 161.136 126.042 164.636 129.489 167.711C133.466 171.264 137.921 172.218 140.148 172.484" stroke="white" stroke-width="2" stroke-miterlimit="10"/>
<path d="M140.148 172.484C141.156 169.779 142.534 165.696 143.489 160.605C144.337 155.939 143.807 156.204 144.868 147.879C145.663 141.781 146.193 139.394 147.36 130.433C147.625 128.577 147.784 127.039 147.89 126.032C147.413 125.342 146.564 124.282 145.398 123.274C141.898 120.305 138.769 120.517 135.164 118.555C133.467 117.6 131.187 115.956 129.065 112.722" stroke="white" stroke-width="2" stroke-miterlimit="10"/>
<path d="M138.292 189.717C140.308 189.346 147.095 187.967 151.231 184.361C151.761 183.937 152.61 183.142 153.458 181.869C155.261 179.112 155.367 176.301 155.42 175.241C155.42 174.976 156.057 170.468 157.382 161.401C159.132 148.939 160.034 142.682 160.14 142.311C160.299 141.727 160.776 140.243 160.14 138.705C159.556 137.22 158.178 136.425 156.534 135.682C154.519 134.728 151.39 133.508 147.095 132.819" stroke="white" stroke-width="2" stroke-miterlimit="10"/>
<path d="M142.906 188.816C144.444 187.914 146.883 186.642 150.118 185.793C155.792 184.202 158.284 185.316 160.617 183.354C162.261 181.975 162.579 179.059 163.11 173.385C163.799 166.12 164.17 162.037 162.579 156.787C161.572 153.446 160.14 150.901 159.08 149.257" stroke="white" stroke-width="2" stroke-miterlimit="10"/>
<path d="M144.603 122.585C147.095 120.888 150.966 117.653 153.459 112.457C154.466 110.335 154.837 108.639 155.421 106.358C157.277 98.6164 155.633 97.0786 157.064 89.7608C158.125 84.352 159.398 83.3445 158.708 80.0568C158.39 78.4129 157.807 77.3524 155.368 73.1632C153.565 69.9815 151.868 67.1181 150.383 64.5728" stroke="white" stroke-width="2" stroke-miterlimit="10"/>
<path d="M141.262 120.835C143.489 117.6 146.405 112.722 148.686 106.358C150.011 102.646 150.648 99.783 151.178 97.5028C152.504 91.5637 153.723 86.1019 152.822 79.5265C152.663 78.3069 152.61 78.572 151.708 73.1632C151.072 69.5043 150.648 66.5348 150.329 64.5728" stroke="white" stroke-width="2" stroke-miterlimit="10"/>
<path d="M135.164 118.502C135.005 114.896 134.793 109.858 134.899 103.813C134.952 99.5178 135.164 91.4046 137.126 74.2237C138.558 61.5502 140.095 51.3689 142.376 40.4452C145.186 27.1884 147.413 22.7871 151.231 19.1282C156.534 14.0376 163.003 12.4998 166.98 11.9165" stroke="white" stroke-width="2" stroke-miterlimit="10"/>
<path d="M150.913 53.8081C151.655 51.3158 150.383 54.6566 152.557 44.6874C152.557 44.6874 154.837 34.3471 156.958 30.8473C157.223 30.37 157.541 29.9458 157.541 29.9458C158.072 29.2034 158.549 28.5671 158.92 28.0898C157.859 35.0364 157.7 40.6043 157.806 44.6874C157.913 48.2403 158.231 51.7931 155.844 54.3914C154.201 56.1413 151.39 57.361 150.595 56.6186C150.171 56.0883 150.542 54.9747 150.913 53.8081Z" stroke="white" stroke-width="2" stroke-miterlimit="10"/>
<path d="M139.564 120.251C140.254 105.775 140.731 95.0103 140.943 90.0257C142.534 54.5503 142.799 43.7327 149.799 31.6425C154.2 23.9535 159.609 18.8099 163.056 15.8934C163.798 14.8328 165.018 13.348 166.927 12.0224C167.51 11.5981 168.73 10.8558 170.798 10.0603C175.04 8.52255 179.388 8.41649 182.039 8.46952" stroke="white" stroke-width="2" stroke-miterlimit="10"/>
<path d="M282.741 369.267C283.748 366.721 284.703 364.706 285.445 363.275C287.142 359.881 287.937 358.873 288.574 356.646C289.316 354.048 289.263 351.927 289.21 350.442C288.574 335.488 286.93 325.519 286.93 325.519C286.134 320.694 284.915 313.27 283.589 303.937" stroke="white" stroke-width="2" stroke-miterlimit="10"/>
<path d="M275.9 303.936H279.241C281.627 303.936 283.589 301.974 283.589 299.588V225.509C283.589 223.123 281.627 221.161 279.241 221.161H275.9C273.514 221.161 271.552 223.123 271.552 225.509V299.588C271.552 301.974 273.514 303.936 275.9 303.936Z" stroke="white" stroke-width="2" stroke-miterlimit="10"/>
<path d="M267.203 303.936C268.21 303.936 269.059 303.088 269.059 302.08V223.017C269.059 222.009 268.21 221.161 267.203 221.161C266.195 221.161 265.347 222.009 265.347 223.017V302.08C265.347 303.088 266.195 303.936 267.203 303.936Z" stroke="white" stroke-width="2" stroke-miterlimit="10"/>
<path d="M232.947 303.936C233.954 303.936 234.803 303.088 234.803 302.08V223.017C234.803 222.009 233.954 221.161 232.947 221.161C231.939 221.161 231.091 222.009 231.091 223.017V302.08C231.091 303.088 231.939 303.936 232.947 303.936Z" stroke="white" stroke-width="2" stroke-miterlimit="10"/>
<path d="M269.483 304.733C268.953 306.323 267.733 309.24 264.923 311.149C262.696 312.634 260.468 312.899 258.931 313.005C251.295 313.641 243.022 313.27 238.992 313.005C238.197 312.899 236.977 312.634 235.652 311.944C235.068 311.626 233.955 311.043 233.159 310.088C231.303 307.755 232.364 304.308 232.523 303.831" stroke="white" stroke-width="2" stroke-miterlimit="10"/>
<path d="M270.332 304.148C270.968 306.482 271.552 308.868 272.188 311.201C271.499 312.315 270.332 313.958 268.476 315.337C265.666 317.458 262.749 318.095 259.992 318.466C251.401 319.632 241.962 318.837 238.41 318.466C237.084 318.413 235.175 318.095 233.001 317.246C231.145 316.504 229.766 315.496 228.865 314.754C228.652 312.474 228.599 309.716 228.865 306.641C229.236 302.398 230.19 298.793 231.145 296.035" stroke="white" stroke-width="2" stroke-miterlimit="10"/>
<path d="M283.589 299.589C284.066 302.399 284.437 306.96 282.952 312.262C282.263 314.649 281.362 316.664 280.46 318.255C279.187 319.05 277.597 319.845 275.688 320.535C272.4 321.754 269.483 322.072 267.203 322.179C261.954 322.444 241.326 322.603 213.274 322.179" stroke="white" stroke-width="2" stroke-miterlimit="10"/>
<path d="M286.93 325.519C285.604 327.11 282.847 329.973 278.445 331.723C275.741 332.784 273.302 333.102 271.605 333.155C267.893 333.473 264.181 333.738 260.416 334.003C244.243 335.011 228.706 335.223 213.911 334.852" stroke="white" stroke-width="2" stroke-miterlimit="10"/>
<path d="M288.573 356.646C287.618 357.336 285.974 358.343 283.8 358.714C282.05 359.032 280.672 358.82 279.876 358.714C273.672 357.813 270.596 357.336 266.195 356.434C266.195 356.434 262.218 355.639 258.082 355.002C251.188 353.942 246.098 353.995 240.424 353.942C234.697 353.942 226.478 353.836 215.501 353.518" stroke="white" stroke-width="2" stroke-miterlimit="10"/>
<path d="M287.301 359.721C286.346 360.411 284.702 361.418 282.528 361.789C280.778 362.108 279.4 361.896 278.604 361.789C272.4 360.888 269.324 360.411 264.923 359.509C264.923 359.509 260.946 358.714 256.81 358.078C249.916 357.017 244.826 357.07 239.152 357.017C233.425 357.017 225.206 356.911 214.229 356.593" stroke="white" stroke-width="2" stroke-miterlimit="10"/>
<path d="M285.976 319.633C288.787 319.686 291.544 319.792 294.354 319.845C294.407 316.345 294.46 312.846 294.513 309.346" stroke="white" stroke-width="2" stroke-miterlimit="10"/>
<path d="M299.55 306.959C299.338 310.035 299.073 313.164 298.861 316.239C297.588 317.141 296.262 317.989 294.99 318.891" stroke="white" stroke-width="2" stroke-miterlimit="10"/>
<path d="M291.383 319.739C291.436 321.807 291.489 323.822 291.542 325.89C290.058 326.05 288.52 326.156 287.035 326.315" stroke="white" stroke-width="2" stroke-miterlimit="10"/>
<path d="M283.588 294.498C284.172 296.937 284.808 299.271 285.391 301.392C286.134 304.096 286.452 305.051 287.406 306.005C287.618 306.217 290.058 308.444 292.391 307.384C294.141 306.588 295.148 304.467 294.618 302.399C294.883 294.551 295.201 283.415 295.467 270.052C295.997 244.016 296.262 230.706 295.732 216.654C295.36 205.73 294.406 190.564 292.126 172.376" stroke="white" stroke-width="2" stroke-miterlimit="10"/>
<path d="M292.391 307.384C292.656 307.649 294.141 309.081 296.262 309.028C298.383 308.975 300.345 307.49 301.193 305.263" stroke="white" stroke-width="2" stroke-miterlimit="10"/>
<path d="M300.929 305.74C300.451 304.892 300.027 304.096 299.55 303.248C299.444 300.278 299.338 295.877 299.285 290.521C299.126 274.719 299.603 264.22 299.815 254.834C300.08 245.819 300.239 232.987 299.815 217.184C301.141 216.76 303.05 215.912 305.065 214.427C305.913 213.791 308.14 211.988 311.693 205.571C312.966 203.291 314.557 200.11 316.094 196.186" stroke="white" stroke-width="2" stroke-miterlimit="10"/>
<path d="M300.081 228.798C301.3 228.479 303.05 227.843 304.853 226.57C308.459 224.078 310.05 220.737 312.065 216.336C313.337 213.526 314.875 209.549 315.936 204.458" stroke="white" stroke-width="2" stroke-miterlimit="10"/>
<path d="M300.929 305.74C302.573 302.612 304.269 299.483 305.913 296.354C306.762 293.173 307.928 288.718 309.254 283.363C311.428 274.401 313.019 267.719 314.239 260.137C315.723 250.751 315.989 243.592 316.201 237.176C316.731 221.161 315.14 219.199 315.935 204.511C316.413 195.284 317.049 196.079 317.579 185.421C318.269 172.27 317.738 162.778 317.579 160.233C317.42 157.157 317.155 154.559 316.996 152.915C316.36 146.605 315.564 141.249 314.875 137.166" stroke="white" stroke-width="2" stroke-miterlimit="10"/>
<path d="M302.838 114.099C303.58 106.198 303.792 99.4635 303.739 94.3729C303.686 87.8505 303.58 79.6312 301.777 69.1848C301.3 66.4804 300.293 62.2382 298.171 53.7008C295.308 41.9818 293.876 37.5275 292.073 32.9671C289.051 25.3312 286.93 22.4147 284.862 20.2405C280.991 16.1044 277.173 14.5136 276.271 14.1424C272.93 12.7637 269.908 12.4985 267.946 12.4985" stroke="white" stroke-width="2" stroke-miterlimit="10"/>
<path d="M281.044 184.254C283.165 191.519 284.968 198.306 286.558 204.722C287.301 207.798 288.308 212.04 286.293 216.07C285.604 217.449 284.702 218.457 284.066 219.093C283.271 219.358 281.998 219.676 280.46 219.941C274.733 220.896 270.438 219.888 267.203 219.411C263.332 218.828 262.537 219.199 252.515 219.411C245.674 219.57 234.008 219.623 213.168 219.252" stroke="white" stroke-width="2" stroke-miterlimit="10"/>
<path d="M271.605 183.193C262.643 183.246 255.537 184.042 250.553 184.837C246.576 185.42 241.22 186.428 232.842 187.276C229.13 187.648 226.478 187.807 225.948 187.86C219.32 188.284 213.805 188.284 209.828 188.125" stroke="white" stroke-width="2" stroke-miterlimit="10"/>
<path d="M248.856 185.049C251.932 187.117 256.28 190.617 259.992 196.132C266.408 205.571 267.15 215.169 267.203 219.358" stroke="white" stroke-width="2" stroke-miterlimit="10"/>
<path d="M247.371 185.315C246.576 179.058 245.781 170.68 245.621 160.71C245.568 155.885 245.568 144.484 248.114 125.553C249.864 112.243 252.939 94.6913 258.613 74.1167" stroke="white" stroke-width="2" stroke-miterlimit="10"/>
<path d="M273.3 150.528C269.8 147.293 265.293 143.688 259.725 140.294C255.218 137.536 250.923 135.468 247.158 133.877" stroke="white" stroke-width="2" stroke-miterlimit="10"/>
<path d="M280.46 65.313C277.809 68.8128 274.203 73.055 269.378 77.1911C264.287 81.6454 259.303 84.721 255.272 86.8951" stroke="white" stroke-width="2" stroke-miterlimit="10"/>
<path d="M309.201 140.507C310.102 144.007 311.322 151.165 308.405 158.801C307.504 161.081 306.178 164.528 302.731 167.604C298.648 171.21 294.088 172.111 292.073 172.376" stroke="white" stroke-width="2" stroke-miterlimit="10"/>
<path d="M292.126 172.376C291.49 170.626 289.422 164.74 288.786 160.498C288.467 158.323 288.308 156.68 288.308 156.68C288.149 155.142 288.096 154.081 287.937 152.437C287.884 151.854 287.831 151.377 287.778 150.9C287.566 149.256 287.407 148.036 287.407 147.718C287.248 146.551 287.036 144.483 286.771 140.612" stroke="white" stroke-width="2" stroke-miterlimit="10"/>
<path d="M293.982 189.768C291.914 189.344 285.179 187.859 281.043 184.253C280.513 183.829 279.664 183.034 278.816 181.761C277.013 179.004 276.907 176.193 276.854 175.133C276.854 174.867 276.218 170.36 274.892 161.292C273.619 152.331 272.293 149.945 272.134 142.203C272.081 140.665 272.134 139.392 272.134 138.597" stroke="white" stroke-width="2" stroke-miterlimit="10"/>
<path d="M289.315 188.708C287.777 187.807 285.338 186.534 282.103 185.686C276.429 184.095 273.937 185.209 271.604 183.247C269.96 181.868 269.642 178.951 269.111 173.277C268.422 166.013 268.051 161.93 269.642 156.68C270.649 153.339 272.081 150.794 273.142 149.15" stroke="white" stroke-width="2" stroke-miterlimit="10"/>
<path d="M280.672 116.007C279.453 113.833 277.862 110.545 276.854 106.197C276.43 104.394 276.165 103.016 276.006 101.213C275.635 97.2356 276.271 95.0084 275.211 89.5996C274.15 84.1908 272.877 83.1833 273.567 79.8956C273.885 78.3578 274.309 77.4564 276.907 73.0021C278.71 69.8204 280.407 66.9569 281.892 64.4116" stroke="white" stroke-width="2" stroke-miterlimit="10"/>
<path d="M286.24 114.099C285.18 111.448 283.854 107.842 282.634 103.494C282.21 101.956 281.627 99.9407 281.044 97.3953C279.718 91.4563 278.498 85.9945 279.4 79.4191C279.506 78.7297 279.559 78.5176 279.771 77.351C279.877 76.8207 280.089 75.5481 280.513 73.0558C281.15 69.3439 281.786 65.2607 281.892 64.4653" stroke="white" stroke-width="2" stroke-miterlimit="10"/>
<path d="M296.74 114.098C296.74 97.8713 295.945 84.2963 295.149 74.1681C294.301 63.5626 292.816 55.8736 289.9 40.3896C287.832 29.572 286.029 23.845 281.044 19.0726C275.741 13.9819 269.272 12.4441 265.295 11.8608" stroke="white" stroke-width="2" stroke-miterlimit="10"/>
<path d="M281.309 53.7007C280.567 51.2084 281.84 54.5492 279.666 44.58C279.666 44.58 277.385 34.2397 275.264 30.7398C274.999 30.2626 274.681 29.8384 274.681 29.8384C274.151 29.096 273.673 28.4597 273.302 27.9824C274.363 34.929 274.522 40.4969 274.416 44.58C274.31 48.1328 273.992 51.6857 276.378 54.284C278.022 56.0339 280.832 57.2536 281.628 56.5112C282.105 55.9809 281.681 54.8673 281.309 53.7007Z" stroke="white" stroke-width="2" stroke-miterlimit="10"/>
<path d="M291.596 114.099C291.437 103.917 291.172 95.0088 290.907 87.7971C289.581 50.5188 287.778 40.9739 282.422 31.535C278.286 24.2703 273.143 19.1266 269.166 15.7859C268.423 14.7253 267.204 13.2406 265.295 11.9149C263.651 10.7483 262.219 10.271 261.424 9.95287C255.856 7.99085 247.53 8.62718 246.258 8.73324" stroke="white" stroke-width="2" stroke-miterlimit="10"/>
<path d="M150.383 64.5729C153.777 60.4368 157.117 56.3006 160.511 52.1645C160.299 48.9298 160.246 46.1724 160.299 44.0513C160.352 36.0442 161.147 29.6809 161.943 23.7418C162.367 20.5602 162.791 17.9088 163.109 15.9468" stroke="white" stroke-width="2" stroke-miterlimit="10"/>
<path d="M280.459 65.3155C276.111 62.8233 271.816 60.2779 267.467 57.7856" stroke="white" stroke-width="2" stroke-miterlimit="10"/>
<path d="M261.369 9.9541C263.225 16.7946 264.921 24.7487 266.088 33.6574C267.255 42.566 267.573 50.6792 267.52 57.7318" stroke="white" stroke-width="2" stroke-miterlimit="10"/>
<path d="M135.695 164.264C134.528 164.317 133.627 164.105 132.99 163.945C132.036 163.68 130.392 163.309 128.96 161.983C127.316 160.499 126.786 158.696 126.574 157.847C126.362 155.62 126.415 153.764 126.468 152.332C126.574 150.37 126.627 148.886 127.21 147.03C127.687 145.439 128.271 144.219 128.748 143.424C129.543 143.106 130.604 142.681 131.983 142.363C134.634 141.78 136.702 141.992 137.179 142.045C139.407 142.31 141.209 143 142.376 143.583C142.641 144.007 142.959 144.697 143.118 145.545C143.224 146.181 143.225 146.765 143.225 147.189C142.747 151.537 142.27 155.832 141.793 160.181C141.528 160.87 140.997 161.93 139.937 162.779C138.24 164.105 136.49 164.211 135.695 164.264Z" stroke="white" stroke-width="2" stroke-miterlimit="10"/>
<path d="M134.422 155.78C136.647 155.78 138.452 154.996 138.452 154.03C138.452 153.063 136.647 152.28 134.422 152.28C132.196 152.28 130.392 153.063 130.392 154.03C130.392 154.996 132.196 155.78 134.422 155.78Z" stroke="white" stroke-width="2" stroke-miterlimit="10"/>
<path d="M136.277 150.53L131.982 150.477C129.86 150.424 128.641 149.045 129.277 147.401C129.914 145.758 132.141 144.379 134.262 144.379H138.61C140.731 144.379 141.951 145.811 141.314 147.508C140.678 149.204 138.398 150.583 136.277 150.53Z" stroke="white" stroke-width="2" stroke-miterlimit="10"/>
<path d="M214.387 8.25778C207.016 7.56842 198.956 7.35631 190.206 7.83356C187.396 7.99264 184.692 8.20475 182.093 8.46989C180.609 9.00016 178.7 9.8486 176.738 11.3334C172.23 14.7802 170.533 19.3935 169.897 21.4086C168.73 24.113 167.087 28.09 165.39 33.0216C163.269 39.2788 161.625 44.1043 160.67 50.5736C160.246 53.6492 159.769 58.1566 160.034 63.7244C160.14 64.838 160.458 66.8 161.731 68.762C163.534 71.4664 166.45 72.474 169.42 73.3754C176.791 75.5496 182.995 76.1859 184.267 76.345C188.085 76.7162 192.911 77.1404 204.471 77.5646C208.819 77.7237 212.425 77.8297 214.97 77.8828" stroke="white" stroke-width="2" stroke-miterlimit="10"/>
<path d="M169.155 73.3753C171.064 65.103 172.92 56.8838 174.829 48.6115C176.26 44.2633 177.374 40.8695 178.01 38.7484C179.071 35.3016 179.601 33.4987 181.086 31.2715C182.783 28.7262 184.586 27.2945 185.063 26.8703C187.555 24.9613 189.995 24.1659 191.479 23.7947C193.866 23.5295 196.358 23.3174 198.956 23.1584C204.206 22.8402 209.137 22.7872 213.698 22.9462" stroke="white" stroke-width="2" stroke-miterlimit="10"/>
<path d="M213.167 8.25778C220.538 7.56842 228.598 7.35631 237.347 7.83356C240.158 7.99264 242.862 8.20475 245.46 8.46989C246.945 9.00016 248.854 9.8486 250.816 11.3334C255.323 14.7801 257.02 19.3935 257.657 21.4086C258.823 24.113 260.467 28.09 262.164 33.0216C264.285 39.2788 265.929 44.1043 266.883 50.5736C267.308 53.6492 267.785 58.1566 267.52 63.7244C267.414 64.838 267.096 66.8 265.823 68.762C264.02 71.4664 261.103 72.527 258.134 73.3754C251.293 75.3905 245.513 75.9207 243.339 76.1329C233.052 77.0873 225.151 77.4585 223.083 77.5646C217.886 77.8297 213.538 77.9888 210.568 78.0418" stroke="white" stroke-width="2" stroke-miterlimit="10"/>
<path d="M258.453 73.3753C256.544 65.103 254.688 56.8838 252.779 48.6115C251.348 44.2633 250.234 40.8695 249.598 38.7484C248.537 35.3016 248.007 33.4987 246.522 31.2715C244.825 28.7262 243.022 27.2945 242.545 26.8703C240.053 24.9613 237.613 24.1659 236.129 23.7947C233.742 23.5295 231.25 23.3174 228.652 23.1584C223.402 22.8402 218.471 22.7872 213.91 22.9462" stroke="white" stroke-width="2" stroke-miterlimit="10"/>
<path d="M295.89 160.977C295.042 155.356 295.095 150.795 295.36 147.614C295.678 143.372 296.421 140.561 298.383 138.175C298.86 137.592 299.337 137.114 299.655 136.849" stroke="white" stroke-width="4" stroke-miterlimit="10"/>
<path d="M288.414 140.668C290.747 133.509 293.133 126.35 295.466 119.191C295.254 117.76 294.989 116.381 294.777 114.949" stroke="white" stroke-width="2" stroke-miterlimit="10"/>
<path d="M301.564 140.667C304.004 132.925 306.39 125.183 308.829 117.441C308.299 116.486 307.769 115.585 307.238 114.63" stroke="white" stroke-width="2" stroke-miterlimit="10"/>
<path d="M306.761 140.667H276.8C272.717 140.667 270.384 137.803 271.604 134.303L276.217 121.046C277.437 117.547 281.891 114.63 286.133 114.577L317.207 114.1C321.449 114.047 323.73 116.91 322.245 120.516L316.783 134.144C315.351 137.697 310.844 140.667 306.761 140.667Z" stroke="white" stroke-width="2" stroke-miterlimit="10"/>
<path d="M292.708 133.721C294.617 134.569 296.473 135.365 298.382 136.213C298.542 136.319 299.761 137.221 301.299 136.743C302.572 136.372 303.155 135.365 303.261 135.153C303.685 131.865 304.056 128.577 304.481 125.289C303.897 125.13 300.61 124.123 297.269 125.979C292.974 128.418 292.708 133.456 292.708 133.721Z" stroke="white" stroke-width="2" stroke-miterlimit="10"/>
<path d="M298.382 136.213C297.958 134.94 298.276 133.614 299.231 132.872C300.397 131.97 302.412 132.236 303.473 133.72" stroke="white" stroke-width="2" stroke-miterlimit="10"/>
<line x1="71.5" y1="7" x2="71.5" y2="370" stroke="url(#paint0_linear)"/>
<line x1="322" y1="413.5" x2="113" y2="413.5" stroke="url(#paint1_linear)"/>
<circle cx="71.5" cy="3.5" r="3.5" fill="url(#paint2_linear)"/>
<circle cx="71.5" cy="373.5" r="3.5" fill="url(#paint3_linear)"/>
<circle cx="109.5" cy="413.5" r="3.5" fill="url(#paint4_linear)"/>
<circle cx="325.5" cy="413.5" r="3.5" fill="url(#paint5_linear)"/>
<path d="M208.045 438.719C208.045 439.137 207.938 439.51 207.723 439.838C207.508 440.162 207.215 440.418 206.844 440.605C207.289 440.812 207.631 441.096 207.869 441.455C208.111 441.814 208.232 442.221 208.232 442.674C208.232 443.424 207.979 444.02 207.471 444.461C206.963 444.898 206.287 445.117 205.443 445.117C204.596 445.117 203.916 444.896 203.404 444.455C202.896 444.014 202.643 443.42 202.643 442.674C202.643 442.217 202.764 441.807 203.006 441.443C203.248 441.08 203.588 440.801 204.025 440.605C203.658 440.418 203.367 440.162 203.152 439.838C202.941 439.51 202.836 439.137 202.836 438.719C202.836 437.992 203.07 437.416 203.539 436.99C204.008 436.564 204.641 436.352 205.438 436.352C206.238 436.352 206.873 436.564 207.342 436.99C207.811 437.416 208.045 437.992 208.045 438.719ZM206.809 442.604C206.809 442.182 206.682 441.842 206.428 441.584C206.178 441.322 205.846 441.191 205.432 441.191C205.018 441.191 204.686 441.32 204.436 441.578C204.189 441.836 204.066 442.178 204.066 442.604C204.066 443.021 204.188 443.355 204.43 443.605C204.676 443.855 205.014 443.98 205.443 443.98C205.873 443.98 206.207 443.859 206.445 443.617C206.688 443.375 206.809 443.037 206.809 442.604ZM206.627 438.771C206.627 438.4 206.52 438.096 206.305 437.857C206.09 437.615 205.801 437.494 205.438 437.494C205.074 437.494 204.787 437.609 204.576 437.84C204.365 438.066 204.26 438.377 204.26 438.771C204.26 439.162 204.365 439.473 204.576 439.703C204.791 439.934 205.08 440.049 205.443 440.049C205.807 440.049 206.094 439.934 206.305 439.703C206.52 439.473 206.627 439.162 206.627 438.771ZM213.348 445H211.93V438.15L209.838 438.865V437.664L213.166 436.439H213.348V445ZM221.996 443.98C222.352 443.98 222.646 443.877 222.881 443.67C223.115 443.463 223.24 443.207 223.256 442.902H224.598C224.582 443.297 224.459 443.666 224.229 444.01C223.998 444.35 223.686 444.619 223.291 444.818C222.896 445.018 222.471 445.117 222.014 445.117C221.127 445.117 220.424 444.83 219.904 444.256C219.385 443.682 219.125 442.889 219.125 441.877V441.73C219.125 440.766 219.383 439.994 219.898 439.416C220.414 438.834 221.117 438.543 222.008 438.543C222.762 438.543 223.375 438.764 223.848 439.205C224.324 439.643 224.574 440.219 224.598 440.934H223.256C223.24 440.57 223.115 440.271 222.881 440.037C222.65 439.803 222.355 439.686 221.996 439.686C221.535 439.686 221.18 439.854 220.93 440.189C220.68 440.521 220.553 441.027 220.549 441.707V441.936C220.549 442.623 220.672 443.137 220.918 443.477C221.168 443.812 221.527 443.98 221.996 443.98ZM229.438 443.248L231.312 438.66H233.094V445H231.67V440.805L229.924 445H228.957L227.205 440.781V445H225.781V438.66H227.574L229.438 443.248Z" fill="white"/>
<path d="M10.1172 188H8.69922V181.15L6.60742 181.865V180.664L9.93555 179.439H10.1172V188ZM18.8184 188H13.082V187.021L15.9238 183.922C16.334 183.465 16.625 183.084 16.7969 182.779C16.9727 182.471 17.0605 182.162 17.0605 181.854C17.0605 181.447 16.9453 181.119 16.7148 180.869C16.4883 180.619 16.1816 180.494 15.7949 180.494C15.334 180.494 14.9766 180.635 14.7227 180.916C14.4688 181.197 14.3418 181.582 14.3418 182.07H12.918C12.918 181.551 13.0352 181.084 13.2695 180.67C13.5078 180.252 13.8457 179.928 14.2832 179.697C14.7246 179.467 15.2324 179.352 15.8066 179.352C16.6348 179.352 17.2871 179.561 17.7637 179.979C18.2441 180.393 18.4844 180.967 18.4844 181.701C18.4844 182.127 18.3633 182.574 18.1211 183.043C17.8828 183.508 17.4902 184.037 16.9434 184.631L14.8574 186.863H18.8184V188ZM23.7578 188H22.3398V181.15L20.248 181.865V180.664L23.5762 179.439H23.7578V188ZM32.4062 186.98C32.7617 186.98 33.0566 186.877 33.291 186.67C33.5254 186.463 33.6504 186.207 33.666 185.902H35.0078C34.9922 186.297 34.8691 186.666 34.6387 187.01C34.4082 187.35 34.0957 187.619 33.7012 187.818C33.3066 188.018 32.8809 188.117 32.4238 188.117C31.5371 188.117 30.834 187.83 30.3145 187.256C29.7949 186.682 29.5352 185.889 29.5352 184.877V184.73C29.5352 183.766 29.793 182.994 30.3086 182.416C30.8242 181.834 31.5273 181.543 32.418 181.543C33.1719 181.543 33.7852 181.764 34.2578 182.205C34.7344 182.643 34.9844 183.219 35.0078 183.934H33.666C33.6504 183.57 33.5254 183.271 33.291 183.037C33.0605 182.803 32.7656 182.686 32.4062 182.686C31.9453 182.686 31.5898 182.854 31.3398 183.189C31.0898 183.521 30.9629 184.027 30.959 184.707V184.936C30.959 185.623 31.082 186.137 31.3281 186.477C31.5781 186.812 31.9375 186.98 32.4062 186.98ZM39.8477 186.248L41.7227 181.66H43.5039V188H42.0801V183.805L40.334 188H39.3672L37.6152 183.781V188H36.1914V181.66H37.9844L39.8477 186.248Z" fill="white"/>
<defs>
<linearGradient id="paint0_linear" x1="71" y1="188.5" x2="70" y2="188.5" gradientUnits="userSpaceOnUse">
<stop stop-color="#7EFFFF"/>
<stop offset="1" stop-color="#19B0B0"/>
</linearGradient>
<linearGradient id="paint1_linear" x1="217.5" y1="413" x2="217.5" y2="412" gradientUnits="userSpaceOnUse">
<stop stop-color="#7EFFFF"/>
<stop offset="1" stop-color="#19B0B0"/>
</linearGradient>
<linearGradient id="paint2_linear" x1="71.5" y1="0" x2="71.5" y2="7" gradientUnits="userSpaceOnUse">
<stop stop-color="#7EFFFF"/>
<stop offset="1" stop-color="#19B0B0"/>
</linearGradient>
<linearGradient id="paint3_linear" x1="71.5" y1="370" x2="71.5" y2="377" gradientUnits="userSpaceOnUse">
<stop stop-color="#7EFFFF"/>
<stop offset="1" stop-color="#19B0B0"/>
</linearGradient>
<linearGradient id="paint4_linear" x1="109.5" y1="410" x2="109.5" y2="417" gradientUnits="userSpaceOnUse">
<stop stop-color="#7EFFFF"/>
<stop offset="1" stop-color="#19B0B0"/>
</linearGradient>
<linearGradient id="paint5_linear" x1="325.5" y1="410" x2="325.5" y2="417" gradientUnits="userSpaceOnUse">
<stop stop-color="#7EFFFF"/>
<stop offset="1" stop-color="#19B0B0"/>
</linearGradient>
</defs>
</svg>
