<svg width="157" height="22" viewBox="0 0 157 22" fill="none" xmlns="http://www.w3.org/2000/svg">
<path d="M34.3716 11.2109H32.7759V17H30.438V3.49219H32.7759V9.16992H34.0654L38.0361 3.49219H40.9121L36.2734 9.9585L41.3203 17H38.5L34.3716 11.2109ZM45.5415 13.7715L47.5825 6.96191H49.9854L45.9961 18.5215C45.3838 20.21 44.3447 21.0542 42.8789 21.0542C42.5511 21.0542 42.1893 20.9985 41.7935 20.8872V19.1431L42.2202 19.1709C42.7892 19.1709 43.216 19.0658 43.5005 18.8555C43.7912 18.6514 44.02 18.305 44.187 17.8164L44.5117 16.9536L40.9863 6.96191H43.417L45.5415 13.7715ZM59.8008 17H57.5464V8.78027H53.6313V17H51.377V6.96191H59.8008V17ZM68.4658 6.96191H70.7109V17H68.4658V10.3018L64.5322 17H62.2871V6.96191H64.5322V13.6602L68.4658 6.96191ZM81.0088 8.75244H77.7524V17H75.498V8.75244H72.2788V6.96191H81.0088V8.75244ZM84.9424 10.1533H87.1504C87.973 10.1533 88.6904 10.2956 89.3027 10.5801C89.915 10.8646 90.3789 11.2635 90.6943 11.7769C91.016 12.2902 91.1768 12.887 91.1768 13.5674C91.1768 14.6003 90.8118 15.429 90.082 16.0537C89.3522 16.6784 88.3812 16.9938 87.1689 17H82.688V6.96191H84.9424V10.1533ZM84.9424 11.9624V15.2002H87.1411C87.6916 15.2002 88.1245 15.0641 88.4399 14.792C88.7616 14.5137 88.9224 14.1209 88.9224 13.6138C88.9224 13.1066 88.7646 12.7077 88.4492 12.417C88.14 12.1201 87.7194 11.9686 87.1875 11.9624H84.9424Z" fill="white"/>
<path d="M0.848485 2.00004C0.623453 2.00004 0.407637 2.08959 0.248515 2.24899C0.0893936 2.4084 0 2.6246 0 2.85003C0 3.07547 0.0893936 3.29167 0.248515 3.45107C0.407637 3.61048 0.623453 3.70003 0.848485 3.70003H2.73212L4.95855 12.625C5.14776 13.3815 5.824 13.9 6.60206 13.9H17.1827C17.9488 13.9 18.5996 13.39 18.8007 12.6505L21 4.55003H19.2233L17.1818 12.2H6.60121L4.37564 3.27503C4.2837 2.90888 4.07177 2.58422 3.77379 2.35305C3.4758 2.12188 3.109 1.99758 2.73212 2.00004H0.848485ZM16.1212 13.9C14.7255 13.9 13.5758 15.0518 13.5758 16.45C13.5758 17.8483 14.7255 19 16.1212 19C17.517 19 18.6667 17.8483 18.6667 16.45C18.6667 15.0518 17.517 13.9 16.1212 13.9ZM8.48485 13.9C7.08909 13.9 5.93939 15.0518 5.93939 16.45C5.93939 17.8483 7.08909 19 8.48485 19C9.88061 19 11.0303 17.8483 11.0303 16.45C11.0303 15.0518 9.88061 13.9 8.48485 13.9ZM11.0303 2.00004V6.25003H8.48485L11.8788 9.65002L15.2727 6.25003H12.7273V2.00004H11.0303ZM8.48485 15.6C8.96339 15.6 9.33333 15.9706 9.33333 16.45C9.33333 16.9294 8.96339 17.3 8.48485 17.3C8.0063 17.3 7.63636 16.9294 7.63636 16.45C7.63636 15.9706 8.0063 15.6 8.48485 15.6ZM16.1212 15.6C16.5998 15.6 16.9697 15.9706 16.9697 16.45C16.9697 16.9294 16.5998 17.3 16.1212 17.3C15.6427 17.3 15.2727 16.9294 15.2727 16.45C15.2727 15.9706 15.6427 15.6 16.1212 15.6Z" fill="white"/>
<path d="M156.707 11.7071C157.098 11.3166 157.098 10.6834 156.707 10.2929L150.343 3.92894C149.953 3.53841 149.319 3.53841 148.929 3.92894C148.538 4.31946 148.538 4.95263 148.929 5.34315L154.586 11L148.929 16.6569C148.538 17.0474 148.538 17.6805 148.929 18.0711C149.319 18.4616 149.953 18.4616 150.343 18.0711L156.707 11.7071ZM104 12L156 12L156 10L104 10L104 12Z" fill="white"/>
</svg>