<?xml version="1.0" encoding="UTF-8"?> <!-- Generator: Adobe Illustrator 17.1.0, SVG Export Plug-In . SVG Version: 6.00 Build 0) --> <svg xmlns="http://www.w3.org/2000/svg" xmlns:xlink="http://www.w3.org/1999/xlink" id="Слой_1" x="0px" y="0px" viewBox="0 0 395.7 84.6" xml:space="preserve"> <title>Fujimo logo black verical</title> <polygon fill="#222222" points="97,13.5 134,13.5 131.3,25.4 112.1,25.4 112.1,39.2 113.6,33.6 128.9,36.7 126.6,49 112,46.1 112,68.4 99.6,71 99.6,28.2 105.6,25.4 95,25.4 "></polygon> <path fill="#222222" d="M151.3,12.9c-1.6,14.5-1.8,24.3-0.6,29.2c0.8,4.3,2.7,8.3,5.5,11.7c2.5,2.9,8.2,3.6,17.1,2.1V13.5l12,0.7 v54.3l-12,1.2v-6.8l-2.2,7.5l-2.6,0.6c-7.8,0.1-13.6-1-17.6-3.3s-7.2-7-9.8-14.1c-2.6-7.1-3.6-17.4-3.2-30.8l0.7-7.7L151.3,12.9z"></path> <path fill="#222222" d="M194.4,13.7h19.5V57c-0.1,3.3-0.5,6.6-1.4,9.8c-0.8,2.8-3.1,5.6-6.9,8.5s-8.8,4.7-14.9,5.3l-1-12.4 c3.6-0.2,6.9-1.9,9.1-4.8c2.2-2.8,3.1-14.5,2.7-34.9l5.6-2.9h-15.7L194.4,13.7z"></path> <polygon fill="#222222" points="219.9,13.5 242.5,13.5 240.8,25.5 237.2,25.5 237.2,58.4 241.8,58.4 241.1,70 218.5,70 219.7,58.4 224.5,58.4 224.6,28.4 229.8,25.5 218.7,25.5 "></polygon> <path fill="#222222" d="M280.5,9.7v4.1h14.1c3.4,0.5,5.3,2.4,5.7,5.7l-0.1,37.6c-1.4,6-3.4,9.8-5.9,11.4c-2.8,1.7-6.1,2.5-9.4,2.4 V58.3c2.3,0.2,3.2-5.1,2.9-16v-16h-7v41.8l-13.4,2.4V26.3h-5.5v42.5l-13.4,1.7V28.7l4.5-2.7h-5.8l3.4-12.2h16.8V9.6"></path> <path fill="#222222" d="M317.7,13.4v5.4l3.2-5.4h27.4c3.4,0.9,5,5.7,4.8,14.3V65c-0.7,3-3.3,4.6-7.8,4.8h-31.7 c-4.7,0.2-7.4-1.9-8.2-6.1V15.9L317.7,13.4z M317.7,57.6h23.1v-32h-23.1V57.6z"></path> <circle fill="#ED1B24" cx="42.3" cy="42.3" r="42.3"></circle> <path fill="#FFFFFF" d="M66.1,20.6c-4.8,1.8-9.8,3.2-14.8,4c-6.6,1.3-12.4,2.4-17.3,3.3l5.8,3.4c-1.4,2.1-2.4,4.3-3.2,6.6 c5-1.6,10.1-2.8,15.3-3.4v9c-5.7,0-11.3,0.7-16.9,1.9c-0.4,3.9-0.7,7.8-0.7,11.8c0,3.9,0.1,9.8,0.4,17.9L34,74l-1-2.2 c-1.3-2.7-2.3-5.7-3-8.6c-1-4-1.7-7.1-2.1-9.2c-0.4-2.3-0.7-4.7-0.9-7.1c-1.4,0.4-2.9,0.8-4.4,1c-0.7,0.2-1.5,0.4-2.3,0.4 c-0.1,0-0.9,0-2.3-0.1c0.7-1.1,1.1-1.7,1.1-1.8c0.6-0.5,1.2-0.9,1.9-1.3c1.9-1.2,3.8-2.3,5.7-3.3c0.1-4.5,1.2-9,3.1-13.1 c-0.1,0-0.2,0-0.4,0h-0.3c-1,0.2-3,0.7-6,1.5c-3,0.8-4.9,1-5.5,0.8c0.1-1.6,2.5-3.4,7.1-5.3c4.6-1.9,7.7-3.1,9.2-3.7 c2.5-0.9,7.1-2.3,13.8-4.4S58.7,14,60.4,13L66.1,20.6z"></path> <g> <path fill="#222222" d="M394,25.2c0,8.9-6.9,15.8-16,15.8c-8.9,0-16.1-6.9-16.1-15.8c0-8.7,7.1-15.6,16.1-15.6 C387.1,9.6,394,16.6,394,25.2z M366,25.2c0,6.9,5.1,12.5,12.2,12.5c6.9,0,11.9-5.5,11.9-12.4c0-7-5-12.6-12-12.6S366,18.4,366,25.2 z M375.6,33.4H372V17.8c1.4-0.3,3.4-0.5,6-0.5c2.9,0,4.3,0.5,5.4,1.1c0.9,0.7,1.5,1.9,1.5,3.4c0,1.7-1.3,3-3.2,3.6v0.2 c1.5,0.6,2.4,1.7,2.9,3.8c0.5,2.4,0.8,3.3,1.1,3.9h-3.9c-0.5-0.6-0.8-2-1.2-3.8c-0.3-1.7-1.2-2.5-3.2-2.5h-1.7V33.4z M375.7,24.5 h1.7c2,0,3.6-0.7,3.6-2.3c0-1.4-1.1-2.4-3.3-2.4c-1,0-1.6,0.1-2,0.2V24.5z"></path> </g> </svg>