<svg width="200" height="200" viewBox="0 0 200 200" fill="none" xmlns="http://www.w3.org/2000/svg">
<circle cx="100" cy="100" r="100" fill="#FFB31F"/>
<circle cx="100" cy="100" r="93.5" stroke="white" stroke-dasharray="5 5"/>
<path d="M65.4268 63.3799L72.7583 49.8984H82.0234L70.6367 69.2881L82.3188 89H72.9463L65.4268 75.3037L57.9072 89H48.5347L60.2168 69.2881L48.8301 49.8984H58.0952L65.4268 63.3799ZM109.846 49.8984H117.929V89H109.846V63.0308L94.189 89H86.1323V49.8984H94.189V75.9214L109.846 49.8984ZM153.54 56.4243H141.562V89H133.505V56.4243H121.689V49.8984H153.54V56.4243ZM62.4727 117H58.9453V102.785H52.1133V117H48.5977V99.9375H62.4727V117ZM69.082 110.988V117H65.5664V99.9375H72.2227C73.5039 99.9375 74.6289 100.172 75.5977 100.641C76.5742 101.109 77.3242 101.777 77.8477 102.645C78.3711 103.504 78.6328 104.484 78.6328 105.586C78.6328 107.258 78.0586 108.578 76.9102 109.547C75.7695 110.508 74.1875 110.988 72.1641 110.988H69.082ZM69.082 108.141H72.2227C73.1523 108.141 73.8594 107.922 74.3438 107.484C74.8359 107.047 75.082 106.422 75.082 105.609C75.082 104.773 74.8359 104.098 74.3438 103.582C73.8516 103.066 73.1719 102.801 72.3047 102.785H69.082V108.141ZM95.0742 108.855C95.0742 110.535 94.7773 112.008 94.1836 113.273C93.5898 114.539 92.7383 115.516 91.6289 116.203C90.5273 116.891 89.2617 117.234 87.832 117.234C86.418 117.234 85.1562 116.895 84.0469 116.215C82.9375 115.535 82.0781 114.566 81.4688 113.309C80.8594 112.043 80.5508 110.59 80.543 108.949V108.105C80.543 106.426 80.8438 104.949 81.4453 103.676C82.0547 102.395 82.9102 101.414 84.0117 100.734C85.1211 100.047 86.3867 99.7031 87.8086 99.7031C89.2305 99.7031 90.4922 100.047 91.5938 100.734C92.7031 101.414 93.5586 102.395 94.1602 103.676C94.7695 104.949 95.0742 106.422 95.0742 108.094V108.855ZM91.5117 108.082C91.5117 106.293 91.1914 104.934 90.5508 104.004C89.9102 103.074 88.9961 102.609 87.8086 102.609C86.6289 102.609 85.7188 103.07 85.0781 103.992C84.4375 104.906 84.1133 106.25 84.1055 108.023V108.855C84.1055 110.598 84.4258 111.949 85.0664 112.91C85.707 113.871 86.6289 114.352 87.832 114.352C89.0117 114.352 89.918 113.891 90.5508 112.969C91.1836 112.039 91.5039 110.688 91.5117 108.914V108.082ZM113.051 121.195H109.805V117H99.5156V121.184H96.1875L96 114.176H97.2891C97.9844 113.598 98.5195 112.75 98.8945 111.633C99.2773 110.508 99.5352 109.117 99.668 107.461L100.16 99.9375H111.34V114.176H113.332L113.051 121.195ZM101.32 114.176H107.824V102.785H103.5L103.207 107.273C102.973 110.281 102.344 112.582 101.32 114.176ZM125.004 113.484H118.84L117.668 117H113.93L120.281 99.9375H123.539L129.926 117H126.188L125.004 113.484ZM119.789 110.637H124.055L121.91 104.25L119.789 110.637ZM145.91 110.051H143.883V117H140.367V110.051H138.293L134.578 117H130.195L135.516 107.848L130.453 99.9375H134.824L138.621 106.816H140.367V99.9375H143.883V106.816H145.594L149.297 99.9375H153.656L148.688 107.836L153.926 117H149.531L145.91 110.051Z" fill="white"/>
<path d="M78.4395 153H60.8965V149.52L69.1758 140.695C70.3125 139.453 71.1504 138.369 71.6895 137.443C72.2402 136.518 72.5156 135.639 72.5156 134.807C72.5156 133.67 72.2285 132.779 71.6543 132.135C71.0801 131.479 70.2598 131.15 69.1934 131.15C68.0449 131.15 67.1367 131.549 66.4688 132.346C65.8125 133.131 65.4844 134.168 65.4844 135.457H60.3867C60.3867 133.898 60.7559 132.475 61.4941 131.186C62.2441 129.896 63.2988 128.889 64.6582 128.162C66.0176 127.424 67.5586 127.055 69.2812 127.055C71.918 127.055 73.9629 127.688 75.416 128.953C76.8809 130.219 77.6133 132.006 77.6133 134.314C77.6133 135.58 77.2852 136.869 76.6289 138.182C75.9727 139.494 74.8477 141.023 73.2539 142.77L67.4355 148.904H78.4395V153ZM98.7949 142.418C98.7949 145.957 98.0625 148.664 96.5977 150.539C95.1328 152.414 92.9883 153.352 90.1641 153.352C87.375 153.352 85.2422 152.432 83.7656 150.592C82.2891 148.752 81.5332 146.115 81.498 142.682V137.971C81.498 134.396 82.2363 131.684 83.7129 129.832C85.2012 127.98 87.3398 127.055 90.1289 127.055C92.918 127.055 95.0508 127.975 96.5273 129.814C98.0039 131.643 98.7598 134.273 98.7949 137.707V142.418ZM93.7148 137.25C93.7148 135.129 93.4219 133.588 92.8359 132.627C92.2617 131.654 91.3594 131.168 90.1289 131.168C88.9336 131.168 88.0488 131.631 87.4746 132.557C86.9121 133.471 86.6133 134.906 86.5781 136.863V143.086C86.5781 145.172 86.8594 146.725 87.4219 147.744C87.9961 148.752 88.9102 149.256 90.1641 149.256C91.4062 149.256 92.3027 148.77 92.8535 147.797C93.4043 146.824 93.6914 145.336 93.7148 143.332V137.25ZM119.783 153H102.24V149.52L110.52 140.695C111.656 139.453 112.494 138.369 113.033 137.443C113.584 136.518 113.859 135.639 113.859 134.807C113.859 133.67 113.572 132.779 112.998 132.135C112.424 131.479 111.604 131.15 110.537 131.15C109.389 131.15 108.48 131.549 107.812 132.346C107.156 133.131 106.828 134.168 106.828 135.457H101.73C101.73 133.898 102.1 132.475 102.838 131.186C103.588 129.896 104.643 128.889 106.002 128.162C107.361 127.424 108.902 127.055 110.625 127.055C113.262 127.055 115.307 127.688 116.76 128.953C118.225 130.219 118.957 132.006 118.957 134.314C118.957 135.58 118.629 136.869 117.973 138.182C117.316 139.494 116.191 141.023 114.598 142.77L108.779 148.904H119.783V153ZM135.252 153H130.172V133.418L124.107 135.299V131.168L134.707 127.371H135.252V153Z" fill="white"/>
</svg>