<svg width="67" height="32" viewBox="0 0 67 32" fill="none" xmlns="http://www.w3.org/2000/svg">
<path d="M31.0361 0.553345H37.5847L37.6375 3.70055L37.5847 8.10665L47.8044 0.868066L50.0074 7.16248L37.9595 14.7158L50.8631 25.1016L47.7159 31.0813L37.5847 22.2691V29.963L31.0361 31.3558V8.42806L31.7536 7.16248L31.0356 6.92812L31.0361 0.553345Z" fill="#222222"/>
<path d="M55.0646 0.553345H66.9999L66.1022 6.98169H64.2009V24.6061H66.6303L66.2606 30.8201H54.3252L54.9589 24.6061H57.4939L57.5467 8.5352L60.2929 6.98169H54.4308L55.0646 0.553345Z" fill="#222222"/>
<path d="M6.68868 0.553345V3.4461L8.37864 0.553345H22.849C24.6445 1.03547 25.4895 3.60681 25.3839 8.21379V28.1952C25.0142 29.8023 23.6411 30.6594 21.2646 30.7666H4.52341C2.04128 30.8737 0.615362 29.7487 0.192871 27.4988V1.89258L6.68868 0.553345ZM6.68868 24.2311H18.8881V7.08883H6.68868V24.2311Z" fill="#222222"/>
</svg>