<svg width="70" height="69" viewBox="0 0 70 69" fill="none" xmlns="http://www.w3.org/2000/svg">
<path d="M15.6269 57.0845C16.3685 54.1617 16.9618 51.0927 17.2584 48.1699C17.4067 45.9778 17.2584 43.6395 17.8517 41.4473C18.445 39.5475 18.7416 37.6477 19.1866 35.6017C19.4832 34.4326 19.7799 33.2635 20.0765 32.0943H20.2249C20.3732 33.1173 20.5215 34.2864 20.6698 35.3094C21.2631 37.5015 21.7081 39.8398 22.4497 42.0319C22.598 42.4703 22.598 42.9088 22.4497 43.4933C20.8181 48.3161 19.0383 53.1387 17.4067 57.9614C17.4067 58.1075 17.2584 58.2536 17.2584 58.3998C17.4067 58.5459 17.5551 58.6921 17.8517 58.8382C19.1866 53.7233 20.9665 48.9006 22.7463 44.0779C23.043 43.201 23.3396 42.3242 22.7463 41.5935C22.598 41.3012 22.4497 41.0089 22.4497 40.5705C21.8564 37.3554 21.1148 34.1403 20.6698 30.9252C20.2248 28.1485 20.0765 25.3718 19.7799 22.7413C19.7799 22.5952 19.4832 22.3029 19.3349 22.1567C19.3349 22.3029 19.1866 22.5952 19.1866 22.7413C19.3349 24.495 19.4832 26.3948 19.6316 28.1485C19.6316 29.0254 19.7799 29.9022 19.6316 30.6329C19.0383 33.2635 18.2967 35.894 17.7034 38.5245C17.2584 40.5705 16.8134 42.6165 16.6651 44.8086C16.3685 48.7545 16.0718 52.8464 14.8853 56.6461C15.3302 56.7922 15.4785 56.9384 15.6269 57.0845Z" fill="#363636"/>
<path d="M46.923 44.2239C48.7029 48.7545 50.3344 53.431 51.6693 58.1075C51.8176 57.9613 51.966 57.8152 52.1143 57.669C50.9277 52.9925 49.1478 48.4622 47.368 43.9316C47.0713 43.0548 47.0713 42.4702 47.368 41.5934C48.1096 39.4013 48.5545 37.063 48.9995 34.7248C49.1478 33.8479 49.2962 32.9711 49.4445 32.0942H49.5928C50.1861 34.2863 50.6311 36.4784 51.2243 38.6706C51.521 40.2781 52.1143 41.8857 52.2626 43.4932C52.5592 46.4162 52.7076 49.4852 53.1525 52.408C53.3009 53.7232 53.5975 55.0385 53.8941 56.2076C54.0425 56.0615 54.1908 55.9154 54.4874 55.7692C53.7458 52.7003 53.3009 49.339 53.1525 46.1239C53.1525 44.9546 53.1525 43.7855 52.8559 42.6164C52.1143 39.2551 51.2243 35.7477 50.4827 32.3865C50.1861 31.2174 50.0378 30.0482 50.0378 28.8791C50.0378 26.8331 50.3344 24.7872 50.6311 22.7412C50.6311 22.4489 50.4827 22.3028 50.4827 22.0105C50.3344 22.1566 50.1861 22.4489 50.1861 22.5951C49.7411 26.5409 49.2962 30.6328 48.7029 34.5786C48.4062 36.9169 47.6646 39.2551 46.923 41.5934C46.7747 42.3241 46.478 42.9086 46.923 43.4932C46.7747 43.7855 46.7747 44.0778 46.923 44.2239Z" fill="#363636"/>
<path d="M29.4202 6.0812C28.5303 9.44244 26.4538 11.6346 22.8941 12.3653C21.4108 12.6575 19.7793 12.6575 18.2961 12.9498C15.033 13.5344 13.2531 15.1419 12.5115 18.357C12.2149 19.38 12.2149 20.5492 12.0665 21.5721C12.0665 24.495 11.9182 27.2716 11.7699 30.0483C11.6216 33.7018 11.3249 37.5015 11.1766 41.155C11.1766 41.4473 11.1766 41.7396 11.0283 41.8857C10.1384 44.224 9.54506 46.7086 9.1001 49.193C9.24842 49.4852 9.39674 49.7775 9.54506 50.0698C9.99003 47.2931 10.5833 44.6624 11.7699 42.0319C11.9182 41.7396 11.9182 41.5935 11.9182 41.3012C12.0665 38.5245 12.0665 35.7478 12.2149 32.825C12.3632 29.9022 12.9565 26.9794 12.8082 24.0565C12.8082 22.3028 12.9565 20.6953 13.1048 18.9416C13.5498 15.7265 15.3296 13.9728 18.5927 13.5344C19.4826 13.3882 20.5209 13.2421 21.4108 13.2421C25.7122 12.9498 29.1236 10.1731 30.0135 5.93506C29.8652 6.0812 29.7169 6.0812 29.4202 6.0812Z" fill="#363636"/>
<path d="M56.4156 18.7954C56.7123 20.6952 56.7123 22.7412 56.8606 24.6411C56.8606 25.8102 56.8606 26.9793 57.0089 28.1484C57.3055 31.3635 57.819 33.8254 57.819 36.9731L57.8988 37.6476C57.8988 38.8167 57.8988 39.8397 57.8988 41.0088C57.8988 41.3011 57.8988 41.5934 58.0472 41.8857C58.9371 44.0778 59.5304 46.416 59.827 48.7543C59.9753 48.462 60.1237 48.3159 60.272 48.0236C59.9753 45.9776 59.3821 44.0778 58.7888 42.178C58.6404 41.7395 58.6404 41.3011 58.4921 40.8627C58.3438 38.3783 58.3438 35.8939 58.1955 33.5556C57.8988 30.1944 57.4539 26.8332 57.4539 23.4719C57.4539 21.8644 57.3055 20.2568 57.0089 18.6493C56.5639 15.7265 54.7841 13.8266 51.8176 13.2421C50.631 12.9498 49.4445 12.8036 48.4062 12.6575C44.4017 12.3652 41.4353 10.027 40.397 6.37344C40.2487 6.37344 39.952 6.37344 39.8037 6.22729C40.6936 9.58854 42.9185 12.0729 46.478 12.8036C48.1096 13.0959 49.7411 13.2421 51.2243 13.3882C54.3391 14.1189 55.9706 15.7265 56.4156 18.7954Z" fill="#363636"/>
<path d="M35.3532 14.4111C35.3532 14.7034 35.5015 14.9957 35.5015 15.4341C35.5015 24.7871 35.5015 34.1402 35.5015 43.6393C35.5015 45.5391 35.5015 47.2928 35.5015 49.1926C35.5015 49.4849 35.5015 49.631 35.5015 49.9233C35.5015 50.0694 35.3532 50.0694 35.2048 50.0694C35.0565 50.0694 34.9082 49.9233 34.9082 49.9233C34.9082 49.7771 34.9082 49.4849 34.9082 49.1926C34.9082 37.9398 34.9082 26.687 34.9082 15.5803C34.9082 15.288 34.9082 14.9957 35.0565 14.5573C35.0565 14.4111 35.2049 14.4111 35.3532 14.4111Z" fill="#363636"/>
<path d="M39.8028 18.2108C39.6545 21.7182 40.3961 25.2256 42.3243 28.4407C42.3243 28.5868 42.4726 28.5868 42.4726 28.733C42.4726 28.8791 42.4726 29.1714 42.4726 29.3175C42.3243 29.1714 42.0276 29.1714 41.8793 29.0252C40.6927 27.1254 39.9511 25.0794 39.5061 23.0335C39.0612 20.9875 38.9129 18.7954 39.2095 16.6033C39.2095 16.4571 39.2095 16.311 39.2095 16.1648C39.2095 16.0187 39.5061 16.0187 39.5061 15.8726C39.6545 16.0187 39.6545 16.1648 39.6545 16.311C39.9511 16.7494 39.9511 17.334 39.8028 18.2108Z" fill="#363636"/>
<path d="M31.2005 18.7954C31.2005 22.1566 30.3105 25.5179 28.679 28.4407C28.5307 28.5868 28.5307 28.733 28.3824 28.8791C28.234 29.0252 27.9374 29.1714 27.7891 29.3175C27.7891 29.0252 27.7891 28.8791 27.7891 28.5868C28.234 27.4177 28.9756 26.2486 29.4206 25.0794C30.4589 22.3028 30.7555 19.5261 30.3105 16.6033V16.4571C30.4589 16.311 30.4589 16.0187 30.6072 15.8726C30.7555 16.0187 30.9038 16.1648 30.9038 16.311C31.0521 17.1878 31.2005 18.0647 31.2005 18.7954Z" fill="#363636"/>
<path d="M30.7557 56.3533C30.6074 56.4994 30.6074 56.6456 30.459 56.6456C30.3107 56.6456 30.1624 56.6456 30.1624 56.4994C29.8657 55.9149 29.5691 55.4764 29.2725 54.8919C29.2725 54.7457 29.2725 54.5996 29.4208 54.5996H29.7174C30.0141 55.038 30.3107 55.7687 30.7557 56.3533Z" fill="#363636"/>
<path d="M40.8412 54.7458C40.5446 55.3303 40.248 55.9149 39.9513 56.4994L39.6547 56.6456C39.5063 56.6456 39.5063 56.4994 39.5063 56.3533C39.803 55.7687 40.0996 55.1842 40.3963 54.5996C40.3963 54.5996 40.6929 54.4535 40.6929 54.5996C40.8412 54.5996 40.8412 54.7458 40.8412 54.7458Z" fill="#363636"/>
<path d="M23.1113 58.5122C25.2411 58.5122 26.9676 56.8111 26.9676 54.7125C26.9676 52.6139 25.2411 50.9128 23.1113 50.9128C20.9814 50.9128 19.2549 52.6139 19.2549 54.7125C19.2549 56.8111 20.9814 58.5122 23.1113 58.5122Z" fill="#E23C0A"/>
<path d="M25.8495 47.7202C27.9794 47.7202 29.7059 46.0191 29.7059 43.9205C29.7059 41.822 27.9794 40.1208 25.8495 40.1208C23.7197 40.1208 21.9932 41.822 21.9932 43.9205C21.9932 46.0191 23.7197 47.7202 25.8495 47.7202Z" fill="#E23C0A"/>
<path d="M44.1044 48.1699C46.2343 48.1699 47.9608 46.4688 47.9608 44.3702C47.9608 42.2717 46.2343 40.5706 44.1044 40.5706C41.9746 40.5706 40.248 42.2717 40.248 44.3702C40.248 46.4688 41.9746 48.1699 44.1044 48.1699Z" fill="#E23C0A"/>
<path d="M46.8427 59.4116C48.9726 59.4116 50.6991 57.7105 50.6991 55.6119C50.6991 53.5133 48.9726 51.8123 46.8427 51.8123C44.7129 51.8123 42.9863 53.5133 42.9863 55.6119C42.9863 57.7105 44.7129 59.4116 46.8427 59.4116Z" fill="#E23C0A"/>
<path d="M25.8725 49.3391C28.8971 49.3391 31.349 46.9232 31.349 43.9431C31.349 40.963 28.8971 38.5471 25.8725 38.5471C22.8479 38.5471 20.396 40.963 20.396 43.9431C20.396 46.9232 22.8479 49.3391 25.8725 49.3391Z" stroke="#E23C0A"/>
<path d="M23.1342 60.1308C26.1588 60.1308 28.6107 57.715 28.6107 54.7348C28.6107 51.7547 26.1588 49.3389 23.1342 49.3389C20.1096 49.3389 17.6577 51.7547 17.6577 54.7348C17.6577 57.715 20.1096 60.1308 23.1342 60.1308Z" stroke="#E23C0A"/>
<path d="M46.8652 61.0302C49.8898 61.0302 52.3417 58.6144 52.3417 55.6343C52.3417 52.6541 49.8898 50.2383 46.8652 50.2383C43.8406 50.2383 41.3887 52.6541 41.3887 55.6343C41.3887 58.6144 43.8406 61.0302 46.8652 61.0302Z" stroke="#E23C0A"/>
<path d="M44.1274 49.7885C47.152 49.7885 49.6039 47.3727 49.6039 44.3926C49.6039 41.4124 47.152 38.9966 44.1274 38.9966C41.1028 38.9966 38.6509 41.4124 38.6509 44.3926C38.6509 47.3727 41.1028 49.7885 44.1274 49.7885Z" stroke="#E23C0A"/>
<path d="M35 68C53.7777 68 69 53.0015 69 34.5C69 15.9985 53.7777 1 35 1C16.2223 1 1 15.9985 1 34.5C1 53.0015 16.2223 68 35 68Z" stroke="#363636"/>
</svg>
