<svg width="72" height="71" viewBox="0 0 72 71" fill="none" xmlns="http://www.w3.org/2000/svg">
<path d="M15.5872 58.7587C16.3506 55.7487 16.9613 52.5881 17.2667 49.578C17.4194 47.3205 17.2667 44.9123 17.8774 42.6548C18.4882 40.6982 18.7935 38.7417 19.2516 36.6346C19.557 35.4306 19.8623 34.2266 20.1677 33.0226H20.3204C20.4731 34.0761 20.6257 35.2801 20.7784 36.3336C21.3892 38.5912 21.8472 40.9992 22.6107 43.2568C22.7633 43.7083 22.7633 44.1598 22.6107 44.7618C20.9311 49.7285 19.0989 54.6951 17.4194 59.6617C17.4194 59.8122 17.2667 59.9627 17.2667 60.1132C17.4194 60.2637 17.5721 60.4143 17.8774 60.5648C19.2516 55.2971 21.0838 50.3305 22.916 45.3638C23.2214 44.4608 23.5268 43.5578 22.916 42.8053C22.7633 42.5043 22.6107 42.2033 22.6107 41.7518C21.9999 38.4407 21.2365 35.1296 20.7784 31.8185C20.3204 28.959 20.1677 26.0994 19.8623 23.3903C19.8623 23.2398 19.557 22.9388 19.4043 22.7883C19.4043 22.9388 19.2516 23.2398 19.2516 23.3903C19.4043 25.1964 19.557 27.1529 19.7096 28.959C19.7096 29.862 19.8623 30.765 19.7096 31.5175C19.0989 34.2266 18.3355 36.9356 17.7247 39.6447C17.2667 41.7517 16.8086 43.8588 16.6559 46.1163C16.3506 50.18 16.0452 54.3941 14.8237 58.3072C15.2818 58.4577 15.4345 58.6082 15.5872 58.7587Z" fill="#363636"/>
<path d="M47.804 45.5142C49.6362 50.18 51.3157 54.9961 52.6899 59.8122C52.8426 59.6617 52.9952 59.5112 53.1479 59.3607C51.9265 54.5446 50.0942 49.879 48.262 45.2132C47.9567 44.3102 47.9567 43.7082 48.262 42.8051C49.0254 40.5476 49.4835 38.1395 49.9416 35.7315C50.0942 34.8285 50.2469 33.9254 50.3996 33.0224H50.5523C51.163 35.28 51.6211 37.5375 52.2318 39.7951C52.5372 41.4506 53.1479 43.1061 53.3006 44.7617C53.606 47.7719 53.7587 50.9325 54.2167 53.9426C54.3694 55.2971 54.6748 56.6516 54.9801 57.8557C55.1328 57.7052 55.2855 57.5546 55.5909 57.4041C54.8275 54.2436 54.3694 50.782 54.2167 47.4709C54.2167 46.2667 54.2167 45.0627 53.9114 43.8587C53.1479 40.3971 52.2318 36.785 51.4684 33.3234C51.163 32.1194 51.0103 30.9154 51.0103 29.7113C51.0103 27.6043 51.3157 25.4973 51.6211 23.3902C51.6211 23.0892 51.4684 22.9387 51.4684 22.6377C51.3157 22.7882 51.163 23.0892 51.163 23.2397C50.705 27.3033 50.2469 31.5174 49.6362 35.581C49.3308 37.989 48.5674 40.3971 47.804 42.8051C47.6513 43.5577 47.3458 44.1597 47.804 44.7617C47.6513 45.0627 47.6513 45.3637 47.804 45.5142Z" fill="#363636"/>
<path d="M29.7869 6.23278C28.8708 9.69436 26.7332 11.9519 23.0688 12.7044C21.542 13.0054 19.8624 13.0054 18.3356 13.3064C14.9765 13.9085 13.1443 15.564 12.3809 18.8751C12.0755 19.9286 12.0755 21.1326 11.9228 22.1861C11.9228 25.1962 11.7701 28.0558 11.6175 30.9153C11.4648 34.6779 11.1594 38.591 11.0067 42.3536C11.0067 42.6546 11.0067 42.9556 10.854 43.1061C9.93793 45.5142 9.32719 48.0729 8.86914 50.6315C9.02183 50.9325 9.17451 51.2335 9.32719 51.5345C9.78525 48.6749 10.396 45.9657 11.6175 43.2566C11.7701 42.9556 11.7701 42.8051 11.7701 42.5041C11.9228 39.6445 11.9228 36.785 12.0755 33.7749C12.2282 30.7648 12.8389 27.7548 12.6863 24.7447C12.6863 22.9387 12.8389 21.2831 12.9916 19.4771C13.4497 16.166 15.2819 14.36 18.641 13.9085C19.5571 13.7579 20.6259 13.6074 21.542 13.6074C25.9698 13.3064 29.4816 10.4469 30.3977 6.08228C30.245 6.23278 30.0923 6.23278 29.7869 6.23278Z" fill="#363636"/>
<path d="M57.5751 19.3266C57.8805 21.2831 57.8805 23.3902 58.0331 25.3467C58.0331 26.5508 58.0331 27.7548 58.1858 28.9588C58.4912 32.2699 59.0197 34.8053 59.0197 38.0469L59.1019 38.7415C59.1019 39.9456 59.1019 40.9991 59.1019 42.2031C59.1019 42.5041 59.1019 42.8051 59.2546 43.1061C60.1707 45.3637 60.7815 47.7717 61.0868 50.1798C61.2395 49.8788 61.3922 49.7283 61.5449 49.4273C61.2395 47.3202 60.6288 45.3637 60.018 43.4071C59.8654 42.9556 59.8654 42.5041 59.7127 42.0526C59.56 39.494 59.56 36.9355 59.4073 34.5274C59.1019 31.0659 58.6439 27.6043 58.6439 24.1427C58.6439 22.4872 58.4912 20.8316 58.1858 19.1761C57.7278 16.166 55.8956 14.2095 52.8419 13.6075C51.6204 13.3065 50.3989 13.156 49.3301 13.0054C45.2078 12.7044 42.1541 10.2964 41.0853 6.5338C40.9327 6.5338 40.6273 6.5338 40.4746 6.3833C41.3907 9.84488 43.681 12.4034 47.3454 13.156C49.0248 13.457 50.7043 13.6075 52.2311 13.758C55.4375 14.5105 57.117 16.166 57.5751 19.3266Z" fill="#363636"/>
<path d="M35.8941 14.8113C35.8941 15.1123 36.0468 15.4133 36.0468 15.8648C36.0468 25.497 36.0468 35.1292 36.0468 44.9119C36.0468 46.8684 36.0468 48.6744 36.0468 50.631C36.0468 50.932 36.0468 51.0825 36.0468 51.3835C36.0468 51.534 35.8941 51.534 35.7414 51.534C35.5887 51.534 35.436 51.3835 35.436 51.3835C35.436 51.233 35.436 50.932 35.436 50.631C35.436 39.0423 35.436 27.4536 35.436 16.0153C35.436 15.7143 35.436 15.4133 35.5887 14.9618C35.5887 14.8113 35.7414 14.8113 35.8941 14.8113Z" fill="#363636"/>
<path d="M40.4742 18.7245C40.3215 22.3365 41.0849 25.9486 43.0698 29.2597C43.0698 29.4102 43.2225 29.4102 43.2225 29.5607C43.2225 29.7112 43.2225 30.0122 43.2225 30.1627C43.0698 30.0122 42.7645 30.0122 42.6118 29.8617C41.3903 27.9052 40.6269 25.7981 40.1688 23.6911C39.7108 21.584 39.5581 19.3265 39.8635 17.0689C39.8635 16.9184 39.8635 16.7679 39.8635 16.6174C39.8635 16.4669 40.1688 16.4669 40.1688 16.3164C40.3215 16.4669 40.3215 16.6174 40.3215 16.7679C40.6269 17.2194 40.6269 17.8214 40.4742 18.7245Z" fill="#363636"/>
<path d="M31.6192 19.3265C31.6192 22.7881 30.7031 26.2496 29.0235 29.2597C28.8708 29.4102 28.8708 29.5607 28.7182 29.7112C28.5655 29.8617 28.2601 30.0122 28.1074 30.1627C28.1074 29.8617 28.1074 29.7112 28.1074 29.4102C28.5655 28.2062 29.3289 27.0021 29.787 25.7981C30.8557 22.9386 31.1611 20.079 30.7031 17.0689V16.9184C30.8557 16.7679 30.8557 16.4669 31.0084 16.3164C31.1611 16.4669 31.3138 16.6174 31.3138 16.7679C31.4665 17.6709 31.6192 18.574 31.6192 19.3265Z" fill="#363636"/>
<path d="M31.1611 58.0057C31.0084 58.1562 31.0084 58.3067 30.8558 58.3067C30.7031 58.3067 30.5504 58.3067 30.5504 58.1562C30.245 57.5542 29.9396 57.1027 29.6343 56.5007C29.6343 56.3502 29.6343 56.1997 29.787 56.1997H30.0923C30.3977 56.6512 30.7031 57.4037 31.1611 58.0057Z" fill="#363636"/>
<path d="M41.5441 56.3502C41.2387 56.9522 40.9333 57.5542 40.628 58.1562L40.3226 58.3067C40.1699 58.3067 40.1699 58.1562 40.1699 58.0057C40.4753 57.4037 40.7807 56.8017 41.086 56.1997C41.086 56.1997 41.3914 56.0492 41.3914 56.1997C41.5441 56.1997 41.5441 56.3502 41.5441 56.3502Z" fill="#363636"/>
<path d="M53.359 21.3296C55.5515 21.3296 57.3288 19.5776 57.3288 17.4165C57.3288 15.2554 55.5515 13.5034 53.359 13.5034C51.1664 13.5034 49.3892 15.2554 49.3892 17.4165C49.3892 19.5776 51.1664 21.3296 53.359 21.3296Z" fill="#E23C0A"/>
<path d="M17.1846 21.3296C19.3771 21.3296 21.1544 19.5776 21.1544 17.4165C21.1544 15.2554 19.3771 13.5034 17.1846 13.5034C14.9922 13.5034 13.2148 15.2554 13.2148 17.4165C13.2148 19.5776 14.9922 21.3296 17.1846 21.3296Z" fill="#E23C0A"/>
<path d="M53.3822 22.9967C56.4958 22.9967 59.0198 20.5087 59.0198 17.4396C59.0198 14.3705 56.4958 11.8826 53.3822 11.8826C50.2687 11.8826 47.7446 14.3705 47.7446 17.4396C47.7446 20.5087 50.2687 22.9967 53.3822 22.9967Z" stroke="#E23C0A"/>
<path d="M17.2079 22.9967C20.3214 22.9967 22.8455 20.5087 22.8455 17.4396C22.8455 14.3705 20.3214 11.8826 17.2079 11.8826C14.0943 11.8826 11.5703 14.3705 11.5703 17.4396C11.5703 20.5087 14.0943 22.9967 17.2079 22.9967Z" stroke="#E23C0A"/>
<path d="M36 70C55.33 70 71 54.5538 71 35.5C71 16.4462 55.33 1 36 1C16.67 1 1 16.4462 1 35.5C1 54.5538 16.67 70 36 70Z" stroke="#363636"/>
</svg>
