<svg width="70" height="69" viewBox="0 0 70 69" fill="none" xmlns="http://www.w3.org/2000/svg">
<path d="M15.6269 57.0848C16.3685 54.1619 16.9618 51.093 17.2584 48.1702C17.4067 45.978 17.2584 43.6397 17.8517 41.4476C18.445 39.5478 18.7416 37.6479 19.1866 35.6019C19.4832 34.4328 19.7799 33.2637 20.0765 32.0946H20.2249C20.3732 33.1176 20.5215 34.2867 20.6698 35.3097C21.2631 37.5018 21.7081 39.84 22.4497 42.0322C22.598 42.4706 22.598 42.909 22.4497 43.4936C20.8181 48.3163 19.0383 53.139 17.4067 57.9616C17.4067 58.1077 17.2584 58.2539 17.2584 58.4C17.4067 58.5462 17.5551 58.6923 17.8517 58.8384C19.1866 53.7235 20.9665 48.9009 22.7463 44.0781C23.043 43.2013 23.3396 42.3244 22.7463 41.5937C22.598 41.3014 22.4497 41.0092 22.4497 40.5707C21.8564 37.3556 21.1148 34.1405 20.6698 30.9254C20.2249 28.1488 20.0765 25.3721 19.7799 22.7415C19.7799 22.5954 19.4832 22.3031 19.3349 22.157C19.3349 22.3031 19.1866 22.5954 19.1866 22.7415C19.3349 24.4952 19.4832 26.3951 19.6316 28.1488C19.6316 29.0256 19.7799 29.9025 19.6316 30.6332C19.0383 33.2637 18.2967 35.8942 17.7034 38.5248C17.2584 40.5707 16.8134 42.6167 16.6651 44.8089C16.3685 48.7547 16.0718 52.8467 14.8853 56.6463C15.3302 56.7925 15.4785 56.9386 15.6269 57.0848Z" fill="#363636"/>
<path d="M46.923 44.2239C48.7029 48.7545 50.3344 53.431 51.6693 58.1075C51.8176 57.9614 51.966 57.8152 52.1143 57.6691C50.9277 52.9926 49.1478 48.4622 47.368 43.9316C47.0713 43.0548 47.0713 42.4702 47.368 41.5934C48.1096 39.4013 48.5545 37.063 48.9995 34.7248C49.1478 33.8479 49.2962 32.9711 49.4445 32.0942H49.5928C50.1861 34.2863 50.6311 36.4785 51.2243 38.6706C51.521 40.2781 52.1143 41.8857 52.2626 43.4932C52.5592 46.4162 52.7076 49.4852 53.1525 52.408C53.3009 53.7233 53.5975 55.0385 53.8941 56.2077C54.0425 56.0615 54.1908 55.9154 54.4874 55.7692C53.7458 52.7003 53.3009 49.339 53.1525 46.1239C53.1525 44.9548 53.1525 43.7855 52.8559 42.6164C52.1143 39.2551 51.2243 35.7478 50.4827 32.3865C50.1861 31.2174 50.0378 30.0483 50.0378 28.8791C50.0378 26.8332 50.3344 24.7872 50.6311 22.7412C50.6311 22.4489 50.4827 22.3028 50.4827 22.0105C50.3344 22.1566 50.1861 22.4489 50.1861 22.5951C49.7411 26.5409 49.2962 30.6328 48.7029 34.5786C48.4062 36.9169 47.6646 39.2551 46.923 41.5934C46.7747 42.3241 46.478 42.9087 46.923 43.4932C46.7747 43.7855 46.7747 44.0778 46.923 44.2239Z" fill="#363636"/>
<path d="M29.4212 6.08096C28.5313 9.4422 26.4548 11.6343 22.895 12.365C21.4118 12.6573 19.7803 12.6573 18.297 12.9496C15.034 13.5341 13.2541 15.1417 12.5125 18.3568C12.2158 19.3798 12.2158 20.5489 12.0675 21.5719C12.0675 24.4947 11.9192 27.2714 11.7709 30.0481C11.6226 33.7016 11.3259 37.5013 11.1776 41.1548C11.1776 41.4471 11.1776 41.7393 11.0293 41.8855C10.1393 44.2237 9.54604 46.7083 9.10107 49.1927C9.2494 49.485 9.39772 49.7773 9.54604 50.0696C9.99101 47.2929 10.5843 44.6623 11.7709 42.0316C11.9192 41.7393 11.9192 41.5932 11.9192 41.3009C12.0675 38.5243 12.0675 35.7476 12.2158 32.8247C12.3642 29.9019 12.9575 26.9791 12.8091 24.0563C12.8091 22.3026 12.9574 20.6951 13.1058 18.9414C13.5507 15.7263 15.3306 13.9726 18.5937 13.5341C19.4836 13.388 20.5219 13.2419 21.4118 13.2419C25.7132 12.9496 29.1246 10.1729 30.0145 5.93481C29.8662 6.08096 29.7179 6.08096 29.4212 6.08096Z" fill="#363636"/>
<path d="M56.4151 18.7957C56.7118 20.6955 56.7118 22.7415 56.8601 24.6413C56.8601 25.8104 56.8601 26.9796 57.0084 28.1487C57.305 31.3638 57.8185 33.8257 57.8185 36.9733L57.8983 37.6478C57.8983 38.817 57.8983 39.84 57.8983 41.0091C57.8983 41.3014 57.8983 41.5936 58.0466 41.8859C58.9366 44.078 59.5299 46.4163 59.8265 48.7546C59.9748 48.4623 60.1232 48.3161 60.2715 48.0238C59.9748 45.9779 59.3815 44.078 58.7883 42.1782C58.6399 41.7398 58.6399 41.3014 58.4916 40.8629C58.3433 38.3785 58.3433 35.8941 58.195 33.5559C57.8983 30.1947 57.4534 26.8334 57.4534 23.4722C57.4534 21.8646 57.305 20.2571 57.0084 18.6495C56.5634 15.7267 54.7836 13.8269 51.8171 13.2423C50.6305 12.95 49.444 12.8039 48.4057 12.6577C44.401 12.3655 41.4348 10.0272 40.3965 6.37368C40.2482 6.37368 39.9515 6.37368 39.8032 6.22754C40.6932 9.58878 42.918 12.0732 46.4775 12.8039C48.1091 13.0962 49.7406 13.2423 51.2238 13.3884C54.3386 14.1191 55.9701 15.7267 56.4151 18.7957Z" fill="#363636"/>
<path d="M35.3537 14.4109C35.3537 14.7032 35.502 14.9955 35.502 15.4339C35.502 24.7869 35.502 34.1399 35.502 43.6391C35.502 45.5388 35.502 47.2925 35.502 49.1923C35.502 49.4846 35.502 49.6308 35.502 49.923C35.502 50.0692 35.3537 50.0692 35.2053 50.0692C35.057 50.0692 34.9087 49.923 34.9087 49.923C34.9087 49.7769 34.9087 49.4846 34.9087 49.1923C34.9087 37.9396 34.9087 26.6867 34.9087 15.58C34.9087 15.2877 34.9087 14.9955 35.057 14.557C35.057 14.4109 35.2053 14.4109 35.3537 14.4109Z" fill="#363636"/>
<path d="M39.8028 18.2108C39.6545 21.7182 40.3961 25.2256 42.3243 28.4407C42.3243 28.5868 42.4726 28.5868 42.4726 28.733C42.4726 28.8791 42.4726 29.1714 42.4726 29.3175C42.3243 29.1714 42.0276 29.1714 41.8793 29.0252C40.6927 27.1254 39.9511 25.0794 39.5061 23.0335C39.0612 20.9875 38.9129 18.7954 39.2095 16.6033C39.2095 16.4571 39.2095 16.311 39.2095 16.1648C39.2095 16.0187 39.5061 16.0187 39.5061 15.8726C39.6545 16.0187 39.6545 16.1648 39.6545 16.311C39.9511 16.7494 39.9511 17.334 39.8028 18.2108Z" fill="#363636"/>
<path d="M31.2005 18.7954C31.2005 22.1566 30.3105 25.5179 28.679 28.4407C28.5307 28.5868 28.5307 28.733 28.3824 28.8791C28.234 29.0252 27.9374 29.1714 27.7891 29.3175C27.7891 29.0252 27.7891 28.8791 27.7891 28.5868C28.234 27.4177 28.9756 26.2486 29.4206 25.0794C30.4589 22.3028 30.7555 19.5261 30.3105 16.6033V16.4571C30.4589 16.311 30.4589 16.0187 30.6072 15.8726C30.7555 16.0187 30.9038 16.1648 30.9038 16.311C31.0522 17.1878 31.2005 18.0647 31.2005 18.7954Z" fill="#363636"/>
<path d="M30.7557 56.3536C30.6074 56.4997 30.6074 56.6458 30.459 56.6458C30.3107 56.6458 30.1624 56.6458 30.1624 56.4997C29.8657 55.9151 29.5691 55.4767 29.2725 54.8921C29.2725 54.746 29.2725 54.5999 29.4208 54.5999H29.7174C30.0141 55.0383 30.3107 55.769 30.7557 56.3536Z" fill="#363636"/>
<path d="M40.8412 54.7458C40.5446 55.3303 40.248 55.9149 39.9513 56.4994L39.6547 56.6456C39.5063 56.6456 39.5063 56.4994 39.5063 56.3533C39.803 55.7687 40.0996 55.1842 40.3963 54.5996C40.3963 54.5996 40.6929 54.4535 40.6929 54.5996C40.8412 54.5996 40.8412 54.7458 40.8412 54.7458Z" fill="#363636"/>
<path d="M53.6884 21.6399C55.8183 21.6399 57.5448 19.9387 57.5448 17.8402C57.5448 15.7417 55.8183 14.0405 53.6884 14.0405C51.5585 14.0405 49.832 15.7417 49.832 17.8402C49.832 19.9387 51.5585 21.6399 53.6884 21.6399Z" fill="#E23C0A"/>
<path d="M55.9701 46.371C58.1 46.371 59.8265 44.67 59.8265 42.5714C59.8265 40.4729 58.1 38.7717 55.9701 38.7717C53.8402 38.7717 52.1138 40.4729 52.1138 42.5714C52.1138 44.67 53.8402 46.371 55.9701 46.371Z" fill="#E23C0A"/>
<path d="M14.4399 45.9216C16.5697 45.9216 18.2962 44.2204 18.2962 42.1219C18.2962 40.0234 16.5697 38.3223 14.4399 38.3223C12.3101 38.3223 10.5835 40.0234 10.5835 42.1219C10.5835 44.2204 12.3101 45.9216 14.4399 45.9216Z" fill="#E23C0A"/>
<path d="M16.2656 21.6399C18.3954 21.6399 20.1219 19.9387 20.1219 17.8402C20.1219 15.7417 18.3954 14.0405 16.2656 14.0405C14.1357 14.0405 12.4092 15.7417 12.4092 17.8402C12.4092 19.9387 14.1357 21.6399 16.2656 21.6399Z" fill="#E23C0A"/>
<path d="M53.7114 23.2585C56.736 23.2585 59.1879 20.8426 59.1879 17.8625C59.1879 14.8824 56.736 12.4666 53.7114 12.4666C50.6868 12.4666 48.2349 14.8824 48.2349 17.8625C48.2349 20.8426 50.6868 23.2585 53.7114 23.2585Z" stroke="#E23C0A"/>
<path d="M55.9931 47.9899C59.0177 47.9899 61.4696 45.5741 61.4696 42.594C61.4696 39.6139 59.0177 37.198 55.9931 37.198C52.9685 37.198 50.5166 39.6139 50.5166 42.594C50.5166 45.5741 52.9685 47.9899 55.9931 47.9899Z" stroke="#E23C0A"/>
<path d="M14.4628 47.5405C17.4874 47.5405 19.9393 45.1246 19.9393 42.1445C19.9393 39.1644 17.4874 36.7485 14.4628 36.7485C11.4382 36.7485 8.98633 39.1644 8.98633 42.1445C8.98633 45.1246 11.4382 47.5405 14.4628 47.5405Z" stroke="#E23C0A"/>
<path d="M16.288 23.2585C19.3126 23.2585 21.7645 20.8426 21.7645 17.8625C21.7645 14.8824 19.3126 12.4666 16.288 12.4666C13.2634 12.4666 10.8115 14.8824 10.8115 17.8625C10.8115 20.8426 13.2634 23.2585 16.288 23.2585Z" stroke="#E23C0A"/>
<path d="M35 68C53.7777 68 69 53.0015 69 34.5C69 15.9985 53.7777 1 35 1C16.2223 1 1 15.9985 1 34.5C1 53.0015 16.2223 68 35 68Z" stroke="#363636"/>
</svg>
