<svg width="71" height="71" viewBox="0 0 71 71" fill="none" xmlns="http://www.w3.org/2000/svg">
<path d="M35.5 70C54.5538 70 70 54.5538 70 35.5C70 16.4462 54.5538 1 35.5 1C16.4462 1 1 16.4462 1 35.5C1 54.5538 16.4462 70 35.5 70Z" stroke="#363636"/>
<path d="M56.5995 51.2359C56.3059 50.6359 55.7187 50.4859 55.1314 50.4859C53.8101 50.6359 52.3421 50.6359 51.0208 50.1859C48.9655 49.5859 47.057 48.5359 45.1484 47.3359C42.0655 45.2359 39.2761 42.8359 36.9272 39.8359C35.6059 38.1859 34.5782 36.3859 33.5506 34.5859C31.6421 30.9859 29.8804 27.3859 28.1187 23.7859C25.9165 19.1359 23.8612 14.1859 22.0995 9.23594C22.0995 9.23594 22.0995 9.23594 22.0995 9.08594C21.9527 9.08594 21.8059 9.23594 21.6591 9.23594C22.8336 12.2359 23.8612 15.3859 25.1825 18.3859C26.7974 22.2859 28.7059 26.0359 30.4676 29.9359C31.9357 32.9359 33.5506 35.7859 35.3123 38.6359C36.7804 41.1859 38.9825 43.1359 41.1846 44.9359C43.6804 47.0359 46.1761 48.6859 49.2591 49.8859C51.0208 50.6359 52.9293 51.0859 54.8378 50.7859C54.9846 50.7859 55.2782 50.7859 55.425 50.7859C56.0123 50.7859 56.4527 51.3859 56.0123 51.9859C55.8655 52.2859 55.7187 52.4359 55.425 52.2859C54.2506 51.6859 52.9293 51.5359 51.608 51.3859C51.1676 51.3859 50.5804 51.3859 50.1399 51.2359C50.1399 51.2359 50.1399 51.2359 50.1399 51.3859C51.1676 51.5359 52.3421 51.6859 53.3697 51.8359C54.1038 51.9859 54.691 52.1359 55.2782 52.5859C55.425 52.7359 55.5719 53.0359 55.5719 53.1859C55.5719 53.3359 55.1314 53.4859 54.9846 53.4859C54.8378 53.4859 54.691 53.4859 54.691 53.3359C53.957 52.4359 52.9293 52.1359 51.9016 51.8359C51.608 51.8359 51.3144 51.8359 51.0208 51.6859C51.7548 51.9859 52.4889 52.1359 53.0761 52.4359C53.5165 52.5859 53.957 53.0359 54.2506 53.3359C54.5442 53.6359 54.5442 54.0859 54.3974 54.2359C54.1038 54.3859 53.3697 54.3859 53.2229 54.0859C52.3421 52.7359 50.874 52.4359 49.5527 52.1359C50.2867 52.4359 51.0208 52.7359 51.7548 53.0359C52.3421 53.3359 52.6357 53.7859 52.9293 54.3859C53.0761 54.6859 52.9293 54.8359 52.6357 54.8359C52.1953 54.8359 51.7548 54.9859 51.7548 54.3859C51.7548 54.2359 51.4612 54.0859 51.3144 53.9359C50.7272 53.3359 48.8187 52.7359 47.9378 52.8859C49.1123 53.3359 50.5804 53.6359 51.3144 54.9859C51.0208 54.9859 50.874 55.1359 50.5804 54.9859C49.9931 54.8359 49.5527 54.6859 48.9655 54.6859C48.8187 54.6859 48.6719 54.6859 48.6719 54.6859C47.2038 55.4359 45.8825 54.9859 44.5612 54.5359C42.5059 53.7859 40.5974 52.8859 38.5421 52.1359C37.9548 51.8359 37.2208 51.8359 36.4867 51.6859C35.0187 51.5359 33.6974 51.5359 32.3761 51.0859C31.0548 50.6359 30.4676 49.5859 30.3208 48.2359C30.3208 47.3359 30.3208 46.5859 30.4676 45.6859C30.908 43.8859 30.4676 42.3859 29.4399 41.0359C28.1187 39.2359 26.6506 37.5859 25.0357 36.0859C21.9527 33.2359 19.0165 30.3859 16.6676 26.9359C15.0527 24.6859 13.5846 22.1359 12.7038 19.4359C12.557 18.9859 12.557 18.3859 12.4102 17.9359C12.2633 18.0859 12.1165 18.3859 11.9697 18.5359C12.2633 20.1859 12.8506 21.6859 13.5846 23.0359C15.0527 26.0359 16.9612 28.5859 19.3102 30.9859C21.6591 33.3859 24.008 35.6359 26.357 38.0359C27.6782 39.3859 28.8527 40.7359 29.7336 42.3859C30.3208 43.2859 30.3208 44.3359 30.0272 45.3859C29.7336 46.5859 29.7336 47.7859 30.0272 48.9859C30.3208 50.1859 31.2016 51.0859 32.2293 51.3859C33.1102 51.6859 34.1378 51.9859 35.1655 51.9859C36.9272 51.9859 38.5421 52.4359 40.3038 53.1859C41.9187 53.9359 43.5336 54.5359 45.2953 54.9859C46.4697 55.4359 47.6442 55.4359 48.8187 54.9859C48.9655 54.9859 49.1123 54.9859 49.2591 54.9859C49.8463 55.1359 50.5804 55.2859 51.1676 55.2859C51.7548 55.2859 52.3421 55.1359 52.9293 55.1359C53.2229 55.1359 53.5165 54.8359 53.8102 54.6859C53.957 54.6859 54.1038 54.5359 54.2506 54.5359C54.9846 54.5359 55.1314 54.3859 55.425 53.7859C55.425 53.6359 55.7187 53.6359 55.8655 53.4859C56.5995 53.3359 56.7463 53.0359 56.7463 52.2859C56.7463 52.1359 56.7463 51.9859 56.8931 51.9859C56.7463 52.2859 56.8931 51.8359 56.5995 51.2359Z" fill="#363636"/>
<path d="M30.9077 41.4861C31.0545 42.5361 31.3481 43.4361 31.3481 44.4861C31.3481 46.1361 32.5226 46.7361 33.8439 47.3361C33.6971 47.1861 33.5503 47.0361 33.4035 46.8861C32.3758 46.1361 32.0822 45.0861 31.9354 43.8861C31.7886 43.1361 31.4949 42.5361 31.3481 41.7861C31.0545 41.6361 31.0545 41.4861 30.9077 41.4861Z" fill="#363636"/>
<path d="M40.3232 54.1141C43.3922 54.1141 45.8802 51.6261 45.8802 48.557C45.8802 45.488 43.3922 43 40.3232 43C37.2541 43 34.7661 45.488 34.7661 48.557C34.7661 51.6261 37.2541 54.1141 40.3232 54.1141Z" stroke="#E23C0A"/>
<path d="M40.2998 52.447C42.461 52.447 44.2129 50.6951 44.2129 48.5339C44.2129 46.3728 42.461 44.6208 40.2998 44.6208C38.1386 44.6208 36.3867 46.3728 36.3867 48.5339C36.3867 50.6951 38.1386 52.447 40.2998 52.447Z" fill="#E23C0A"/>
</svg>
