<svg width="272" height="271" viewBox="0 0 272 271" fill="none" xmlns="http://www.w3.org/2000/svg">
<path d="M1.18115e-05 135.108C1.83409e-05 60.4209 60.7256 -0.000110023 135.789 -0.000103461C210.853 -9.68984e-05 272 60.4209 272 135.108C272 209.795 211.274 270.216 136.211 270.216L136.211 135.108L1.18115e-05 135.108Z" fill="url(#paint0_linear)"/>
<path d="M136.269 13.7894C69.1873 13.7894 14.8067 67.9984 14.8067 134.868C14.8067 201.738 69.1873 255.947 136.269 255.947C203.35 255.947 257.731 201.738 257.731 134.868C257.731 67.9984 203.35 13.7894 136.269 13.7894Z" fill="#030303"/>
<defs>
<linearGradient id="paint0_linear" x1="136" y1="270.216" x2="136" y2="-0.000103442" gradientUnits="userSpaceOnUse">
<stop stop-color="#7EFFFF"/>
<stop offset="1" stop-color="#19B0B0"/>
</linearGradient>
</defs>
</svg>
